<?xml version="1.0" standalone="no"?>
<!DOCTYPE svg PUBLIC "-//W3C//DTD SVG 1.1//EN" "http://www.w3.org/Graphics/SVG/1.1/DTD/svg11.dtd" >
<svg xmlns="http://www.w3.org/2000/svg">
<metadata>Generated by IcoMoon</metadata>
<defs>
<font id="advFonts" horiz-adv-x="1024">
<font-face units-per-em="1024" ascent="960" descent="-64" />
<missing-glyph horiz-adv-x="1024" />
<glyph unicode="&#x20;" horiz-adv-x="512" d="" />
<glyph unicode="&#xe900;" glyph-name="location-25d" d="M597.333 618.667c0-47.128-38.204-85.333-85.333-85.333s-85.333 38.205-85.333 85.333c0 47.128 38.204 85.333 85.333 85.333s85.333-38.205 85.333-85.333zM282.347 816.432c49.738 61.063 126.194 100.901 229.653 100.901s179.917-39.838 229.653-100.901c48.661-59.743 69.013-136.308 69.013-207.183 0-138.21-73.237-247.441-237.854-416.341-33.353-34.223-88.427-34.074-121.609 0.273-162.774 168.469-237.871 277.781-237.871 416.068 0 70.874 20.352 147.44 69.014 207.183zM348.51 762.541c-33.624-41.28-49.843-97.423-49.843-153.291 0-100.885 50.9-188.006 213.478-356.33 163.725 168.055 213.188 255.305 213.188 356.33 0 55.868-16.218 112.011-49.843 153.291-32.55 39.96-84.092 69.459-163.49 69.459s-130.942-29.499-163.49-69.459zM232.727 277.333c-17.941 0-33.967-11.226-40.098-28.087l-62.061-170.667c-4.756-13.077-2.834-27.657 5.151-39.057s21.028-18.189 34.947-18.189h682.666c13.918 0 26.961 6.788 34.948 18.189 7.983 11.401 9.907 25.98 5.15 39.057l-62.059 170.667c-6.135 16.862-22.157 28.087-40.098 28.087h-62.063c-23.565 0-42.667-19.102-42.667-42.667s19.102-42.667 42.667-42.667h32.175l31.031-85.333h-560.836l31.030 85.333h32.176c23.564 0 42.667 19.102 42.667 42.667s-19.103 42.667-42.667 42.667h-62.061z" />
<glyph unicode="&#xe901;" glyph-name="radar-2" d="M42.667 448c0 259.206 210.128 469.333 469.333 469.333 259.204 0 469.333-210.128 469.333-469.333 0-259.204-210.129-469.333-469.333-469.333-259.206 0-469.333 210.129-469.333 469.333zM130.344 490.667h129.196c17.52 104.432 98.269 187.424 201.538 208.268v129.718c-174.089-23.066-311.363-162.759-330.734-337.986zM546.411 830.479v-128.772c111.091-14.924 199.607-101.103 218.048-211.041h129.199c-19.981 180.733-165.389 323.663-347.247 339.813zM893.658 405.333h-129.199c-18.441-109.939-106.957-196.117-218.048-211.042v-128.772c181.858 16.154 327.266 159.083 347.247 339.814zM461.077 67.345v129.719c-103.269 20.843-184.017 103.838-201.538 208.269h-129.196c19.37-175.228 156.644-314.918 330.734-337.988zM346.71 405.333c14.72-57.19 58.34-102.78 114.367-120.273v120.273h-114.367zM546.411 280.802c63.868 13.077 114.743 61.833 130.88 124.531h-130.88v-124.531zM677.291 490.667c-16.137 62.7-67.012 111.455-130.88 124.53v-124.53h130.88zM461.077 610.94c-56.027-17.492-99.647-63.081-114.367-120.273h114.367v120.273z" />
<glyph unicode="&#xe902;" glyph-name="text-fp-2" d="M383.912 232.047c-27.937 1.745-62.567 2.62-103.89 2.62-40.741 0-75.080-0.875-103.017-2.62l2.619 25.318c11.64 1.161 24.154 3.49 37.54 6.985 13.968 4.070 21.244 8.145 21.826 12.22 4.656 0 6.984 104.183 6.984 312.544l-60.239-0.873-2.619 9.603 20.080 34.048c8.148-1.164 22.116-2.328 41.905-3.492 0 37.831 6.402 71.879 19.206 102.144 13.387 30.265 29.101 53.837 47.144 70.715 18.624 16.879 38.704 31.138 60.239 42.778 34.921 18.624 62.857 27.937 83.811 27.937 4.655 0 12.224-6.984 22.699-20.953 11.059-13.386 18.334-26.772 21.824-40.159l-13.094-16.588c-25.028 11.058-50.052 16.588-75.080 16.588-66.932 0-100.398-60.529-100.398-181.589l113.493 0.873 4.363-10.476-27.062-34.048c-19.789 1.746-50.054 2.91-90.795 3.492 0-161.803 2.91-265.982 8.73-312.544 0.582-4.075 8.73-8.149 24.445-12.22 16.297-4.075 30.265-6.404 41.905-6.985l-2.619-25.318zM656.653 273.079c46.558 0 81.481 15.424 104.759 46.268 23.283 31.433 34.923 68.681 34.923 111.748s-10.185 78.865-30.558 107.383c-19.785 28.519-49.762 42.778-89.92 42.778-15.714 0-33.758-2.91-54.127-8.73s-35.503-11.931-45.397-18.333v-266.274c27.938-9.894 54.711-14.839 80.32-14.839zM640.064 5.060c-27.938 1.745-61.696 2.62-101.274 2.62-39.573 0-73.331-0.875-101.269-2.62l2.62 25.318c38.993 3.49 59.076 9.020 60.237 16.585 6.985 33.178 10.479 103.893 10.479 212.147 0 174.605-1.745 276.749-5.239 306.432l-1.745 14.842-55.876 16.588-1.745 22.699c36.668 0 74.79 5.238 114.368 15.714l16.589-7.857v-42.778c45.397 34.339 91.665 51.508 138.807 51.508 47.147 0 85.269-15.714 114.368-47.143 29.103-31.429 43.652-80.902 43.652-148.414 0-66.931-18.334-119.313-55.002-157.146s-81.481-56.747-134.447-56.747c-38.413 0-74.496 9.314-108.254 27.938 0.58-130.372 2.33-199.633 5.239-207.782 1.161-7.565 21.534-13.094 61.111-16.585l-2.62-25.318z" />
<glyph unicode="&#xe903;" glyph-name="trafficlight-horizonal" d="M362.667 426.667c0 47.13-38.205 85.333-85.333 85.333s-85.333-38.204-85.333-85.333c0-47.13 38.205-85.333 85.333-85.333s85.333 38.204 85.333 85.333zM320 426.667c0-23.565-19.103-42.667-42.667-42.667s-42.667 19.102-42.667 42.667c0 23.565 19.103 42.667 42.667 42.667s42.667-19.102 42.667-42.667zM512 341.333c-47.13 0-85.333 38.204-85.333 85.333s38.204 85.333 85.333 85.333c47.13 0 85.333-38.204 85.333-85.333s-38.204-85.333-85.333-85.333zM512 384c23.565 0 42.667 19.102 42.667 42.667s-19.102 42.667-42.667 42.667c-23.565 0-42.667-19.102-42.667-42.667s19.102-42.667 42.667-42.667zM832 426.667c0 47.13-38.204 85.333-85.333 85.333s-85.333-38.204-85.333-85.333c0-47.13 38.204-85.333 85.333-85.333s85.333 38.204 85.333 85.333zM789.333 426.667c0-23.565-19.102-42.667-42.667-42.667s-42.667 19.102-42.667 42.667c0 23.565 19.102 42.667 42.667 42.667s42.667-19.102 42.667-42.667zM0 426.667c0-153.169 124.166-277.333 277.333-277.333h469.333c153.169 0 277.333 124.164 277.333 277.333 0 153.167-124.164 277.333-277.333 277.333h-469.333c-153.167 0-277.333-124.166-277.333-277.333zM277.333 618.667h469.333c106.039 0 192-85.961 192-192s-85.961-192-192-192h-469.333c-106.039 0-192 85.961-192 192s85.961 192 192 192z" />
<glyph unicode="&#xe904;" glyph-name="add" d="M512 832c23.565 0 42.667-19.103 42.667-42.667v-298.667h298.667c23.565 0 42.667-19.102 42.667-42.667s-19.102-42.667-42.667-42.667h-298.667v-298.667c0-23.565-19.102-42.667-42.667-42.667s-42.667 19.102-42.667 42.667v298.667h-298.667c-23.564 0-42.667 19.102-42.667 42.667s19.103 42.667 42.667 42.667h298.667v298.667c0 23.564 19.102 42.667 42.667 42.667z" />
<glyph unicode="&#xe905;" glyph-name="add-circle" d="M512 21.333c-235.642 0-426.667 191.027-426.667 426.667 0 235.642 191.025 426.667 426.667 426.667 235.639 0 426.667-191.025 426.667-426.667 0-235.639-191.027-426.667-426.667-426.667zM512-64c282.769 0 512 229.231 512 512s-229.231 512-512 512c-282.77 0-512-229.23-512-512s229.23-512 512-512zM512 746.667c23.565 0 42.667-19.103 42.667-42.667v-213.333h213.333c23.565 0 42.667-19.102 42.667-42.667s-19.102-42.667-42.667-42.667h-213.333v-213.333c0-23.565-19.102-42.667-42.667-42.667s-42.667 19.102-42.667 42.667v213.333h-213.333c-23.564 0-42.667 19.102-42.667 42.667s19.102 42.667 42.667 42.667h213.333v213.333c0 23.564 19.102 42.667 42.667 42.667z" />
<glyph unicode="&#xe906;" glyph-name="airpod" d="M192 787.031c0 11.782 9.551 21.333 21.333 21.333 10.427 0 22.085-4.384 31.791-9.184 10.515-5.2 21.897-12.486 32.465-21.22 19.86-16.411 42.411-42.656 42.411-73.961 0-11.782-9.551-21.333-21.333-21.333s-21.333 9.551-21.333 21.333c0 11.361-9.45 26.633-26.923 41.071-8.098 6.692-16.716 12.163-24.201 15.865-3.735 1.847-6.944 3.133-9.459 3.92-2.086 0.653-3.171 0.81-3.418 0.843-11.782 0-21.333 9.551-21.333 21.333zM406.289 808.569c-41.554 67.997-104.145 108.247-180.374 108.743-93.615-4.321-153.848-37.923-213.663-130.94-8.268-12.858-12.252-27.951-12.252-43.238v-101.9c-0.004-14.86 4.404-29.43 12.722-41.81l0.038-0.056 2.588-3.867c10.759-16.073 23.763-35.5 43.555-53.277 20.898-18.769 47.412-34.155 84.429-46.677l0.084-0.030c26.347-8.853 54.208-12.194 81.887-9.813 5.4 0.465 10.771 1.148 16.099 2.039v-420.032c0.025-23.403 9.189-45.969 25.682-62.711 16.514-16.764 39.041-26.308 62.675-26.334h50.926c23.634 0.026 46.163 9.57 62.675 26.334 16.491 16.742 25.655 39.309 25.681 62.711v421.355c0.866 32.896-0.183 65.816-3.145 98.587-3.913 85.102-23.462 162.033-59.606 220.916zM85.333 763.095c32.868 43.419 85.464 69.593 139.628 68.891l0.305-0.003c42.345-0.246 79.606-21.083 108.23-67.943l0.052-0.084c26.525-43.197 43.762-105.157 47.142-181.096l0.045-0.998 0.091-0.995c2.742-29.939 3.709-60.017 2.897-90.075l-0.016-0.576v-422.421c-0.004-1.207-0.484-2.24-1.138-2.906-0.635-0.644-1.359-0.887-1.977-0.887h-50.742c-0.618 0-1.342 0.243-1.977 0.887-0.655 0.666-1.135 1.707-1.138 2.918v479.1c0 15.027-7.905 28.946-20.811 36.644s-28.91 8.038-42.132 0.897c-14.227-7.684-29.81-12.343-45.81-13.721-15.985-1.376-32.086 0.548-47.341 5.668-28.211 9.55-44 19.692-54.716 29.317-11.275 10.127-19.046 21.407-30.591 38.644v118.739zM832 787.031c0 11.782-9.553 21.333-21.333 21.333-10.428 0-22.084-4.384-31.791-9.184-10.513-5.2-21.897-12.486-32.465-21.22-19.861-16.411-42.411-42.656-42.411-73.961 0-11.782 9.553-21.333 21.333-21.333s21.333 9.551 21.333 21.333c0 11.361 9.451 26.633 26.923 41.071 8.098 6.692 16.717 12.163 24.201 15.865 3.738 1.847 6.946 3.133 9.459 3.92 2.086 0.653 3.17 0.81 3.418 0.843 11.78 0 21.333 9.551 21.333 21.333zM617.711 808.569c41.553 67.997 104.145 108.247 180.373 108.743 93.615-4.321 153.847-37.923 213.662-130.94 8.269-12.858 12.254-27.951 12.254-43.238v-101.9c0.004-14.86-4.403-29.43-12.723-41.81l-0.038-0.056-2.586-3.867c-10.761-16.073-23.765-35.5-43.554-53.277-20.898-18.769-47.411-34.155-84.429-46.677l-0.085-0.030c-26.347-8.853-54.208-12.194-81.886-9.813-5.402 0.465-10.769 1.148-16.098 2.039v-420.032c-0.026-23.403-9.19-45.969-25.681-62.711-16.516-16.764-39.044-26.308-62.677-26.334h-50.927c-23.633 0.026-46.161 9.57-62.673 26.334-16.491 16.742-25.655 39.309-25.681 62.711v421.355c-0.866 32.896 0.183 65.816 3.145 98.587 3.913 85.102 23.462 162.033 59.605 220.916zM938.667 763.095c-32.866 43.419-85.466 69.593-139.627 68.891l-0.307-0.003c-42.342-0.246-79.603-21.083-108.228-67.943l-0.051-0.084c-26.526-43.197-43.763-105.157-47.142-181.096l-0.047-0.998-0.090-0.995c-2.739-29.939-3.708-60.017-2.897-90.075l0.017-0.576v-422.421c0.004-1.207 0.482-2.24 1.139-2.906 0.631-0.644 1.357-0.887 1.975-0.887h50.743c0.619 0 1.34 0.243 1.975 0.887 0.653 0.666 1.135 1.707 1.139 2.918v479.1c0 15.027 7.906 28.946 20.809 36.644 12.907 7.697 28.911 8.038 42.133 0.897 14.225-7.684 29.811-12.343 45.811-13.721 15.983-1.376 32.085 0.548 47.339 5.668 28.211 9.55 44.002 19.692 54.716 29.317 11.277 10.127 19.046 21.407 30.592 38.644v118.739z" />
<glyph unicode="&#xe907;" glyph-name="alarm" d="M512.516 928c17.673 0 32-14.327 32-32v-85.333c0-17.673-14.327-32-32-32s-32 14.327-32 32v85.333c0 17.673 14.327 32 32 32zM128 362.667c0 212.077 171.923 384 384 384 212.079 0 384-171.923 384-384v-198.541c0-31.735-25.724-57.459-57.459-57.459h-653.082c-31.733 0-57.458 25.724-57.458 57.459v198.541zM512 661.333c-164.948 0-298.666-133.717-298.666-298.667v-170.667h85.333v156.928c0 23.565 19.102 42.667 42.667 42.667s42.667-19.102 42.667-42.667v-156.928h426.666v170.667c0 164.949-133.717 298.667-298.667 298.667zM101.712 794.070c-12.497 12.497-32.758 12.497-45.255 0s-12.497-32.758 0-45.255l77.83-77.83c12.497-12.497 32.758-12.497 45.255 0s12.497 32.758 0 45.255l-77.83 77.83zM961.293 794.070c-12.497 12.497-32.755 12.497-45.252 0l-77.833-77.83c-12.497-12.497-12.497-32.758 0-45.255s32.759-12.497 45.257 0l77.828 77.83c12.497 12.497 12.497 32.758 0 45.255zM170.667 64c-23.564 0-42.667-19.102-42.667-42.667s19.102-42.667 42.667-42.667h682.666c23.565 0 42.667 19.102 42.667 42.667s-19.102 42.667-42.667 42.667h-682.666z" />
<glyph unicode="&#xe908;" glyph-name="arrow-direction" d="M968.188 862.084c-31.979 30.527-62.43 1.719-165.952-45.791-276.945-127.058-759.569-385.291-759.569-385.291l414.682-56.469 59.213-395.866c0 0 270.562 460.672 403.605 724.946 49.766 98.875 79.945 127.944 48.021 158.471zM868.651 760.239l-301.175-533.812-30.618 242.5 331.793 291.311z" />
<glyph unicode="&#xe909;" glyph-name="arrow-direction-circle" d="M512 21.333c-235.642 0-426.667 191.027-426.667 426.667 0 235.642 191.025 426.667 426.667 426.667 235.639 0 426.667-191.025 426.667-426.667 0-235.639-191.027-426.667-426.667-426.667zM512-64c282.769 0 512 229.231 512 512s-229.231 512-512 512c-282.77 0-512-229.23-512-512s229.23-512 512-512zM780.369 674.278c-21.803 20.352-42.564 1.146-113.148-30.528-188.826-84.705-517.888-256.862-517.888-256.862l282.739-37.645 40.371-263.91c0 0 184.474 307.115 275.183 483.297 33.933 65.917 54.511 85.296 32.742 105.648zM712.503 606.381l-205.346-355.872-20.873 161.664 226.219 194.208z" />
<glyph unicode="&#xe90a;" glyph-name="d-text" d="M95.334 304.333c34.444-25.779 74.667-38.665 120.666-38.665 29.111 0 52.222 6.443 69.333 19.332s25.667 31.223 25.667 55.002c0 24.444-10.222 43.11-30.667 55.996-20.222 12.89-48.666 19.337-85.333 19.337h-46v82.999h42.333c69.333 0 104 23.334 104 69.999 0 44-26.556 66-79.667 66-34.667 0-68.334-11.334-101-34v89c35.555 18.444 77.444 27.667 125.667 27.667 48.889 0 88.556-11.334 119-34 30.444-22.444 45.667-53.667 45.667-93.667 0-67.554-34.223-109.999-102.667-127.334v-1.664c36-4.002 64.778-17.225 86.333-39.667 21.555-22.225 32.333-49.335 32.333-81.335 0-49.109-18-87.445-54-114.999-35.778-27.554-83.555-41.331-143.333-41.331-53.111 0-95.889 8.777-128.333 26.33v95.002zM523.665 192v516.333h178.334c183.334 0 274.999-83.889 274.999-251.668 0-79.778-25.664-143.889-76.996-192.333-51.337-48.222-117.559-72.333-198.669-72.333h-177.668zM633.668 618.333v-336.332h59.998c52.224 0 93.222 15.556 122.999 46.665 29.777 31.113 44.668 73.225 44.668 126.336 0 51.332-15.556 91.332-46.665 119.998-31.113 28.889-71.556 43.334-121.335 43.334h-59.665z" />
<glyph unicode="&#xe90b;" glyph-name="d-sphere" d="M703.851 751.113c-7.236 22.426-31.279 34.743-53.705 27.51-22.43-7.233-34.743-31.277-27.511-53.704 4.186-12.978 8.102-26.627 11.721-40.889 5.786-22.842 28.996-36.666 51.84-30.876 22.839 5.789 36.663 29 30.878 51.842-4.036 15.919-8.452 31.316-13.222 46.117zM490.206 597.472c7.219 0.14 14.485 0.212 21.794 0.212s14.575-0.071 21.794-0.212c23.556-0.458 43.029 18.269 43.486 41.829s-18.27 43.030-41.83 43.488c-7.77 0.151-15.59 0.228-23.45 0.228s-15.68-0.076-23.45-0.228c-23.561-0.458-42.287-19.928-41.83-43.488s19.93-42.287 43.486-41.829zM768.994 653.071c-22.839 5.789-46.050-8.034-51.84-30.876s8.034-46.052 30.878-51.842c14.259-3.615 27.908-7.532 40.887-11.718 22.426-7.233 46.468 5.083 53.705 27.51 7.232 22.426-5.086 46.47-27.511 53.704-14.801 4.774-30.199 9.187-46.118 13.222zM746.79 471.45c-0.461 23.561-19.93 42.287-43.49 41.83s-42.287-19.93-41.83-43.486c0.141-7.219 0.213-14.485 0.213-21.794s-0.073-14.571-0.213-21.794c-0.457-23.556 18.27-43.029 41.83-43.486s43.029 18.27 43.49 41.83c0.149 7.77 0.226 15.59 0.226 23.45s-0.077 15.68-0.226 23.45zM512 960c282.769 0 512-229.23 512-512s-229.231-512-512-512c-282.77 0-512 229.231-512 512s229.23 512 512 512zM512 874.667c-11.435 0-26.372-5.475-44.228-23.907-17.984-18.56-36.147-47.646-52.304-87.072-32.231-78.644-53.151-190.234-53.151-315.689 0-49.382 3.242-96.619 9.139-140.544 43.924-5.897 91.162-9.139 140.544-9.139 125.453 0 237.043 20.919 315.691 53.15 39.424 16.158 68.51 34.321 87.070 52.305 18.432 17.856 23.906 32.794 23.906 44.228 0 3.503-0.486 7.057-1.523 10.739-2.274 8.064-2.069 16.235 0.154 23.71-16.631 208.169-182.677 374.215-390.848 390.847-7.475-2.224-15.646-2.427-23.71-0.154-3.682 1.039-7.236 1.524-10.739 1.524zM511.945 21.333h0.055c3.503 0 7.057 0.486 10.739 1.523 8.064 2.274 16.235 2.069 23.71-0.154 167.403 13.376 307.563 123.375 364.689 274.197-15.906-8.862-33.037-16.994-51.089-24.393-44.13-18.086-95.714-32.602-152.354-42.773 8.998-10.21 12.971-24.542 9.378-38.729-4.036-15.919-8.452-31.317-13.222-46.118-7.236-22.426-31.279-34.743-53.705-27.511-22.43 7.236-34.743 31.279-27.511 53.705 4.186 12.979 8.102 26.628 11.721 40.887 0.678 2.684 1.6 5.244 2.731 7.663-40.119-4.356-82.048-6.647-125.086-6.647-42.731 0-84.369 2.261-124.229 6.554 7.793-32.162 17.138-61.461 27.697-87.228 16.157-39.424 34.32-68.51 52.304-87.070 17.83-18.402 32.742-23.889 44.173-23.906zM85.333 448c0-11.435 5.475-26.372 23.907-44.228 18.56-17.984 47.646-36.147 87.072-52.305 25.763-10.556 55.062-19.904 87.226-27.695-4.294 39.859-6.554 81.498-6.554 124.228 0 43.038 2.292 84.966 6.647 125.086-2.417-1.132-4.977-2.053-7.66-2.733-14.262-3.615-27.91-7.532-40.889-11.718-22.426-7.233-46.47 5.083-53.704 27.51s5.083 46.47 27.51 53.704c14.801 4.774 30.198 9.187 46.117 13.222 14.19 3.596 28.522-0.376 38.732-9.377 10.169 56.641 24.687 108.226 42.773 152.355 7.399 18.054 15.528 35.185 24.393 51.090-150.825-57.127-260.823-197.289-274.198-364.69 2.224-7.475 2.427-15.646 0.154-23.71-1.039-3.682-1.524-7.236-1.524-10.739zM163.951 272.508c-18.054 7.398-35.185 15.531-51.090 24.393 43.215-114.095 133.946-204.826 248.041-248.038-8.866 15.906-16.995 33.037-24.393 51.089-16.047 39.155-29.284 84.173-39.168 133.389-49.215 9.886-94.237 23.121-133.39 39.168z" />
<glyph unicode="&#xe90c;" glyph-name="d-cubic-line" d="M512.209 917.333c23.565 0 42.667-19.103 42.667-42.667v-183.834l239.215-138.233c13.193-7.624 21.316-21.706 21.316-36.943v-279.279l190.895-137.779c19.11-13.794 23.42-40.461 9.63-59.567-13.794-19.11-40.461-23.42-59.567-9.63l-186.193 134.387-236.612-136.73c-13.201-7.629-29.466-7.633-42.671-0.017l-237.041 136.759-186.21-134.4c-19.107-13.79-45.776-9.481-59.567 9.63-13.791 19.106-9.481 45.773 9.626 59.567l190.896 137.779v279.279c0 15.249 8.137 29.338 21.345 36.957l239.605 138.238v183.814c0 23.564 19.102 42.667 42.667 42.667zM512.192 616.942l-175.554-101.285 175.554-101.282 175.275 101.282-175.275 101.285zM730.074 441.724l-175.198-101.239v-202.551l175.198 101.244v202.547zM469.542 137.873v202.59l-175.616 101.321v-202.59l175.616-101.321z" />
<glyph unicode="&#xe90d;" glyph-name="d-cubic" d="M490.825 911.529c13.286 7.745 29.713 7.739 42.995-0.015l383.693-224c13.099-7.648 21.154-21.677 21.154-36.847v-448c0-15.168-8.055-29.197-21.154-36.847l-383.693-224c-13.282-7.753-29.709-7.761-42.995-0.017l-384.31 224c-13.115 7.646-21.181 21.683-21.181 36.864v448c0 15.181 8.066 29.218 21.181 36.862l384.31 224zM170.667 576.412v-349.229l298.978-174.263v349.231l-298.978 174.262zM554.978 52.979l298.355 174.182v349.19l-298.355-174.18v-349.193zM512.29 476.062l299.085 174.604-299.085 174.605-299.561-174.605 299.561-174.604z" />
<glyph unicode="&#xe90e;" glyph-name="arrow-trail-circle-down" d="M268.497 456.836c-16.662-16.661-16.662-43.678 0-60.339l213.334-213.333c16.661-16.661 43.678-16.661 60.339 0l213.333 213.333c16.661 16.661 16.661 43.678 0 60.339s-43.678 16.661-60.339 0l-140.497-140.497v387.661c0 23.564-19.102 42.667-42.667 42.667s-42.667-19.103-42.667-42.667v-387.661l-140.497 140.497c-16.663 16.661-43.677 16.661-60.34 0zM512 21.333c-235.642 0-426.667 191.027-426.667 426.667 0 235.642 191.025 426.667 426.667 426.667 235.639 0 426.667-191.025 426.667-426.667 0-235.639-191.027-426.667-426.667-426.667zM512-64c282.769 0 512 229.231 512 512s-229.231 512-512 512c-282.77 0-512-229.23-512-512s229.23-512 512-512z" />
<glyph unicode="&#xe90f;" glyph-name="arrow-trail-circle-left" d="M499.503 691.503c-16.661 16.662-43.678 16.662-60.339 0l-213.334-213.334c-16.662-16.661-16.662-43.678 0-60.339l213.334-213.333c16.661-16.661 43.678-16.661 60.339 0s16.661 43.678 0 60.339l-140.497 140.497h408.994c23.565 0 42.667 19.102 42.667 42.667s-19.102 42.667-42.667 42.667h-408.994l140.497 140.497c16.661 16.663 16.661 43.677 0 60.34zM512 21.333c-235.642 0-426.667 191.027-426.667 426.667 0 235.642 191.025 426.667 426.667 426.667 235.639 0 426.667-191.025 426.667-426.667 0-235.639-191.027-426.667-426.667-426.667zM512-64c282.769 0 512 229.231 512 512s-229.231 512-512 512c-282.77 0-512-229.23-512-512s229.23-512 512-512z" />
<glyph unicode="&#xe910;" glyph-name="arrow-trail-circle-right" d="M524.497 691.503c16.661 16.662 43.678 16.662 60.339 0l213.333-213.334c16.661-16.661 16.661-43.678 0-60.339l-213.333-213.333c-16.661-16.661-43.678-16.661-60.339 0s-16.661 43.678 0 60.339l140.497 140.497h-408.994c-23.564 0-42.667 19.102-42.667 42.667s19.103 42.667 42.667 42.667h408.994l-140.497 140.497c-16.661 16.663-16.661 43.677 0 60.34zM512 21.333c-235.642 0-426.667 191.027-426.667 426.667 0 235.642 191.025 426.667 426.667 426.667 235.639 0 426.667-191.025 426.667-426.667 0-235.639-191.027-426.667-426.667-426.667zM512-64c282.769 0 512 229.231 512 512s-229.231 512-512 512c-282.77 0-512-229.23-512-512s229.23-512 512-512z" />
<glyph unicode="&#xe911;" glyph-name="arrow-trail-circle-up" d="M268.497 460.497c-16.662 16.661-16.662 43.678 0 60.339l213.334 213.334c16.661 16.662 43.678 16.662 60.339 0l213.333-213.334c16.661-16.661 16.661-43.678 0-60.339s-43.678-16.661-60.339 0l-140.497 140.497v-387.66c0-23.565-19.102-42.667-42.667-42.667s-42.667 19.102-42.667 42.667v387.66l-140.497-140.497c-16.663-16.661-43.677-16.661-60.34 0zM512 21.333c-235.642 0-426.667 191.027-426.667 426.667 0 235.642 191.025 426.667 426.667 426.667 235.639 0 426.667-191.025 426.667-426.667 0-235.639-191.027-426.667-426.667-426.667zM512-64c282.769 0 512 229.231 512 512s-229.231 512-512 512c-282.77 0-512-229.23-512-512s229.23-512 512-512z" />
<glyph unicode="&#xe912;" glyph-name="arrow-trail-down" d="M268.497 456.836c-16.662-16.661-16.662-43.678 0-60.339l213.334-213.333c16.661-16.661 43.678-16.661 60.339 0l213.333 213.333c16.661 16.661 16.661 43.678 0 60.339s-43.678 16.661-60.339 0l-140.497-140.497v387.661c0 23.564-19.102 42.667-42.667 42.667s-42.667-19.103-42.667-42.667v-387.661l-140.497 140.497c-16.663 16.661-43.677 16.661-60.34 0z" />
<glyph unicode="&#xe913;" glyph-name="arrow-trail-left" d="M499.503 691.503c-16.661 16.662-43.678 16.662-60.339 0l-213.334-213.334c-16.662-16.661-16.662-43.678 0-60.339l213.334-213.333c16.661-16.661 43.678-16.661 60.339 0s16.661 43.678 0 60.339l-140.497 140.497h408.994c23.565 0 42.667 19.102 42.667 42.667s-19.102 42.667-42.667 42.667h-408.994l140.497 140.497c16.661 16.663 16.661 43.677 0 60.34z" />
<glyph unicode="&#xe914;" glyph-name="arrow-trail-right" d="M524.497 691.503c16.661 16.662 43.678 16.662 60.339 0l213.333-213.334c16.661-16.661 16.661-43.678 0-60.339l-213.333-213.333c-16.661-16.661-43.678-16.661-60.339 0s-16.661 43.678 0 60.339l140.497 140.497h-408.994c-23.564 0-42.667 19.102-42.667 42.667s19.103 42.667 42.667 42.667h408.994l-140.497 140.497c-16.661 16.663-16.661 43.677 0 60.34z" />
<glyph unicode="&#xe915;" glyph-name="arrow-trail-up" d="M268.497 460.497c-16.662 16.661-16.662 43.678 0 60.339l213.334 213.334c16.661 16.662 43.678 16.662 60.339 0l213.333-213.334c16.661-16.661 16.661-43.678 0-60.339s-43.678-16.661-60.339 0l-140.497 140.497v-387.66c0-23.565-19.102-42.667-42.667-42.667s-42.667 19.102-42.667 42.667v387.66l-140.497-140.497c-16.663-16.661-43.677-16.661-60.34 0z" />
<glyph unicode="&#xe916;" glyph-name="ascending" d="M154.339 914.084c15.943 6.604 34.295 2.954 46.498-9.249l192-192c16.662-16.663 16.662-43.677 0-60.34s-43.677-16.662-60.34 0l-119.163 119.164v-750.326c0-23.565-19.103-42.667-42.667-42.667s-42.667 19.102-42.667 42.667v853.332c0 17.257 10.395 32.815 26.339 39.419zM292.571 487.62c0 23.561 19.103 42.667 42.667 42.667h560.762c23.565 0 42.667-19.106 42.667-42.667 0-23.565-19.102-42.667-42.667-42.667h-560.762c-23.564 0-42.667 19.102-42.667 42.667zM292.571 283.426c0 23.565 19.103 42.667 42.667 42.667h466.285c23.565 0 42.667-19.102 42.667-42.667 0-23.561-19.102-42.667-42.667-42.667h-466.285c-23.564 0-42.667 19.106-42.667 42.667zM292.571 106.667c0 23.565 19.103 42.667 42.667 42.667h329.142c23.565 0 42.667-19.102 42.667-42.667s-19.102-42.667-42.667-42.667h-329.142c-23.564 0-42.667 19.102-42.667 42.667z" />
<glyph unicode="&#xe917;" glyph-name="atmprs" d="M604.446 752.139c-33.084 11.696-68.203 17.049-103.505 15.64-48.644-1.941-95.919-16.653-137.075-42.656s-74.742-62.381-97.382-105.478c-22.641-43.097-33.538-91.393-31.596-140.038s16.653-95.919 42.656-137.075c6.293-9.958 19.47-12.932 29.43-6.639s12.933 19.469 6.64 29.427c-22.003 34.825-34.451 74.829-36.093 115.989s7.578 82.025 26.735 118.493c19.157 36.467 47.576 67.248 82.4 89.251s74.827 34.451 115.988 36.093c29.871 1.192 59.588-3.337 87.578-13.234 11.11-3.927 23.3 1.894 27.226 13.002 3.93 11.108-1.894 23.297-13.001 27.224zM746.458 638.801c-6.293 9.961-19.469 12.933-29.431 6.64-9.958-6.293-12.932-19.469-6.639-29.43 22.003-34.824 34.449-74.827 36.092-115.988s-7.578-82.027-26.735-118.494c-5.478-10.428-1.463-23.326 8.964-28.804 10.432-5.483 23.33-1.468 28.809 8.964 22.639 43.098 33.536 91.392 31.595 140.036s-16.653 95.919-42.654 137.075zM521.86 374.118c50.522 0 91.473 40.956 91.473 91.473 0 7.898-0.998 15.561-2.88 22.869-1.719 6.677 16.149 33.382 34.543 60.866 20.625 30.822 41.903 62.621 36.941 68.244-4.407 4.992-23.249-7.806-46.106-23.327-30.665-20.826-68.548-46.555-88.457-40.785-8.098 2.348-16.657 3.606-25.515 3.606-50.517 0-91.473-40.952-91.473-91.473 0-50.517 40.956-91.473 91.473-91.473zM938.667 501.077c0 235.642-191.027 426.667-426.667 426.667-235.642 0-426.667-191.025-426.667-426.667 0-235.639 191.025-426.667 426.667-426.667 235.639 0 426.667 191.027 426.667 426.667zM853.333 501.077c0-188.514-152.819-341.333-341.333-341.333s-341.333 152.819-341.333 341.333c0 188.514 152.82 341.334 341.333 341.334s341.333-152.82 341.333-341.334zM333.198 63.066c-1.025 0.439-2.168-0.311-2.168-1.429 0-49.357 33.756-93.111 82.415-101.38 72.921-12.395 131.178-12.89 199.675-0.866 47.565 8.35 79.851 51.661 79.851 99.955 0 2.197-2.253 3.678-4.279 2.825-54.323-22.921-114.027-35.593-176.691-35.593-63.475 0-123.917 13.001-178.802 36.489z" />
<glyph unicode="&#xe918;" glyph-name="attatch" d="M814.118 811.295c-48.299 48.299-128.371 48.358-178.859-2.129l-388.583-388.583c-79.855-79.855-80.216-207.121-3.068-284.271 77.148-77.146 204.416-76.787 284.271 3.068l278.144 278.144c16.661 16.661 43.678 16.661 60.339 0s16.661-43.678 0-60.339l-278.144-278.144c-112.162-112.162-293.469-114.547-404.95-3.068s-109.095 292.787 3.068 404.949l388.583 388.584c82.795 82.795 216.909 84.761 299.537 2.129 82.633-82.632 80.666-216.745-2.129-299.54l-392.67-392.672c-50.039-50.039-131.514-51.537-181.968-1.084s-48.956 131.93 1.083 181.969l409.033 409.033c16.666 16.662 43.678 16.662 60.339 0 16.666-16.663 16.666-43.677 0-60.34l-409.032-409.033c-17.731-17.732-17.204-45.167-1.082-61.291 16.121-16.119 43.556-16.649 61.288 1.084l392.671 392.673c50.487 50.488 50.428 130.562 2.129 178.861z" />
<glyph unicode="&#xe919;" glyph-name="baby" d="M968.533 878.933c-51.2 51.2-132.267 51.2-179.2 0l-29.867-29.867c-64 21.333-132.267 17.067-200.533-4.267l-4.267 4.267c-42.667 42.667-119.467 42.667-162.133 0-38.4-38.4-42.667-98.133-17.067-140.8l-281.6-281.6c-68.267-68.267-68.267-174.933 0-243.2l179.2-179.2c34.133-34.133 76.8-51.2 119.467-51.2s89.6 17.067 119.467 51.2l277.333 277.333c17.067-8.533 34.133-12.8 55.467-12.8 29.867 0 59.733 12.8 81.067 34.133 46.933 46.933 46.933 119.467 0 162.133 29.867 68.267 34.133 140.8 12.8 204.8l29.867 29.867c46.933 51.2 46.933 128 0 179.2zM657.067 268.8l-119.467 119.467c-17.067 17.067-42.667 17.067-59.733 0s-17.067-42.667 0-59.733l119.467-119.467-68.267-68.267-119.467 119.467c-17.067 17.067-42.667 17.067-59.733 0s-17.067-42.667 0-59.733l119.467-119.467-12.8-17.067c-34.133-34.133-89.6-34.133-119.467 0l-179.2 179.2c-21.333 17.067-29.867 42.667-29.867 64s8.533 42.667 25.6 59.733l277.333 277.333 302.933-302.933-76.8-72.533zM870.4 366.933c-12.8-12.8-29.867-12.8-42.667 0l-379.733 379.733c-12.8 12.8-12.8 29.867 0 42.667 8.533 4.267 17.067 8.533 21.333 8.533 8.533 0 17.067-4.267 21.333-8.533l379.733-379.733c12.8-12.8 12.8-34.133 0-42.667zM908.8 759.467l-68.267-68.267 17.067-51.2c8.533-34.133 12.8-68.267 4.267-106.667l-234.667 234.667c34.133 4.267 72.533 4.267 106.667-4.267l51.2-17.067 34.133 42.667 29.867 29.867c17.067 17.067 42.667 17.067 59.733 0s17.067-42.667 0-59.733z" />
<glyph unicode="&#xe91a;" glyph-name="battery-horizonal" d="M682.667 533.333c0 23.564-19.102 42.667-42.667 42.667s-42.667-19.103-42.667-42.667v-170.667c0-23.565 19.102-42.667 42.667-42.667s42.667 19.102 42.667 42.667v170.667zM426.667 576c23.565 0 42.667-19.103 42.667-42.667v-170.667c0-23.565-19.102-42.667-42.667-42.667s-42.667 19.102-42.667 42.667v170.667c0 23.564 19.103 42.667 42.667 42.667zM256 533.333c0 23.564-19.103 42.667-42.667 42.667s-42.667-19.103-42.667-42.667v-170.667c0-23.565 19.103-42.667 42.667-42.667s42.667 19.102 42.667 42.667v170.667zM853.333 618.667v-341.333c0-47.13-38.204-85.333-85.333-85.333h-682.667c-47.128 0-85.333 38.204-85.333 85.333v341.333c0 47.128 38.205 85.333 85.333 85.333h682.667c47.13 0 85.333-38.205 85.333-85.333zM768 277.333v341.333h-682.667v-341.333h682.667zM938.667 533.333c23.565 0 42.667-19.102 42.667-42.667v-85.333c0-23.565-19.102-42.667-42.667-42.667s-42.667 19.102-42.667 42.667v85.333c0 23.565 19.102 42.667 42.667 42.667z" />
<glyph unicode="&#xe91b;" glyph-name="battery-vertical" d="M384 874.667c0 23.564 19.103 42.667 42.667 42.667h170.667c23.565 0 42.667-19.103 42.667-42.667s-19.102-42.667-42.667-42.667h-170.667c-23.564 0-42.667 19.103-42.667 42.667zM384 576c-23.564 0-42.667-19.103-42.667-42.667s19.103-42.667 42.667-42.667h256c23.565 0 42.667 19.102 42.667 42.667s-19.102 42.667-42.667 42.667h-256zM341.333 362.667c0 23.565 19.103 42.667 42.667 42.667h256c23.565 0 42.667-19.102 42.667-42.667s-19.102-42.667-42.667-42.667h-256c-23.564 0-42.667 19.102-42.667 42.667zM384 234.667c-23.564 0-42.667-19.102-42.667-42.667s19.103-42.667 42.667-42.667h256c23.565 0 42.667 19.102 42.667 42.667s-19.102 42.667-42.667 42.667h-256zM298.667 746.667h426.667c47.13 0 85.333-38.205 85.333-85.333v-597.333c0-47.13-38.204-85.333-85.333-85.333h-426.667c-47.128 0-85.333 38.204-85.333 85.333v597.333c0 47.128 38.205 85.333 85.333 85.333zM725.333 661.333h-426.667v-597.333h426.667v597.333z" />
<glyph unicode="&#xe91c;" glyph-name="arrow-trail-large-down" d="M140.497 435.503c-16.662-16.661-16.662-43.678 0-60.339l341.334-341.333c16.661-16.661 43.678-16.661 60.339 0l341.333 341.333c16.661 16.661 16.661 43.678 0 60.339s-43.678 16.661-60.339 0l-268.497-268.497v664.994c0 23.564-19.102 42.667-42.667 42.667s-42.667-19.103-42.667-42.667v-664.994l-268.497 268.497c-16.663 16.661-43.677 16.661-60.34 0z" />
<glyph unicode="&#xe91d;" glyph-name="arrow-trail-large-left" d="M542.17 819.503c-16.661 16.662-43.678 16.662-60.339 0l-341.334-341.334c-16.662-16.661-16.662-43.678 0-60.339l341.334-341.333c16.661-16.661 43.678-16.661 60.339 0s16.661 43.678 0 60.339l-268.496 268.497h664.993c23.565 0 42.667 19.102 42.667 42.667s-19.102 42.667-42.667 42.667h-664.993l268.496 268.497c16.661 16.663 16.661 43.677 0 60.34z" />
<glyph unicode="&#xe91e;" glyph-name="arrow-trail-large-right" d="M481.83 76.497c16.661-16.661 43.678-16.661 60.339 0l341.333 341.333c16.661 16.661 16.661 43.678 0 60.339l-341.333 341.334c-16.661 16.662-43.678 16.662-60.339 0s-16.661-43.677 0-60.34l268.497-268.497h-664.994c-23.564 0-42.667-19.102-42.667-42.667s19.103-42.667 42.667-42.667h664.994l-268.497-268.497c-16.661-16.661-16.661-43.678 0-60.339z" />
<glyph unicode="&#xe91f;" glyph-name="arrow-trail-large-up" d="M140.497 460.497c-16.662 16.661-16.662 43.678 0 60.339l341.334 341.334c16.661 16.662 43.678 16.662 60.339 0l341.333-341.334c16.661-16.661 16.661-43.678 0-60.339s-43.678-16.661-60.339 0l-268.497 268.496v-664.993c0-23.565-19.102-42.667-42.667-42.667s-42.667 19.102-42.667 42.667v664.993l-268.497-268.496c-16.663-16.661-43.677-16.661-60.34 0z" />
<glyph unicode="&#xe920;" glyph-name="bell" d="M892.804 256.896c-35.221 37.845-101.12 94.775-101.12 281.264 0 141.643-99.315 255.031-233.229 282.849v37.99c0 32.212-26.103 58.334-58.3 58.334-32.192 0-58.295-26.123-58.295-58.334v-37.99c-133.915-27.818-233.229-141.206-233.229-282.849 0-186.488-65.9-243.418-101.119-281.264-10.938-11.759-15.787-25.813-15.695-39.578 0.201-29.892 23.662-58.334 58.516-58.334h699.647c34.859 0 58.338 28.442 58.517 58.334 0.094 13.764-4.757 27.84-15.693 39.578zM214.92 246.49c38.683 50.987 80.976 135.497 81.176 290.613 0 0.364-0.109 0.692-0.109 1.057 0 112.768 91.403 204.17 204.169 204.17 112.768 0 204.173-91.403 204.173-204.17 0-0.365-0.111-0.693-0.111-1.057 0.201-155.133 42.492-239.643 81.178-290.613h-570.475zM500.156-16.017c64.388 0 116.617 52.228 116.617 116.668h-233.229c0-64.439 52.229-116.668 116.613-116.668z" />
<glyph unicode="&#xe921;" glyph-name="bell-cute" d="M554.667 874.667v-57.446c161.105-20.914 285.538-158.654 285.538-325.457v-99.622c55.667-7.966 98.462-55.842 98.462-113.711 0-63.441-51.43-114.871-114.871-114.871h-92.941l-3.947-19.43c-20.169-99.366-107.883-174.187-213.265-174.187-105.385 0-193.101 74.82-213.271 174.187l-3.944 19.43h-96.223c-63.442 0-114.872 51.43-114.872 114.871 0 57.869 42.793 105.745 98.461 113.711v99.622c0 166.804 124.434 304.544 285.539 325.457v57.446c0 23.564 19.102 42.667 42.667 42.667s42.667-19.103 42.667-42.667zM269.128 392.141c0-42.462-31.218-78.464-73.25-84.476-14.235-2.035-25.211-14.426-25.211-29.235 0-16.311 13.225-29.538 29.539-29.538h623.59c16.311 0 29.538 13.227 29.538 29.538 0 14.81-10.978 27.2-25.212 29.235-42.031 6.012-73.25 42.014-73.25 84.476v99.622c0 134.135-108.736 242.872-242.871 242.872s-242.872-108.738-242.872-242.872v-99.622zM384 161.105c7.272-35.827 29.022-66.398 58.876-85.333 20.467-12.983 44.736-20.497 70.767-20.497 26.027 0 50.295 7.514 70.763 20.497 29.854 18.935 51.605 49.506 58.876 85.333h-259.281z" />
<glyph unicode="&#xe922;" glyph-name="bell-cute-mute" d="M554.667 874.667c0 23.564-19.102 42.667-42.667 42.667s-42.667-19.103-42.667-42.667v-57.446c-47.073-6.111-91.015-22.196-129.637-46.065l62.633-62.633c32.943 16.701 70.208 26.113 109.67 26.113 134.135 0 242.871-108.737 242.871-242.872v-99.622c0-42.462 31.219-78.464 73.25-84.476 14.234-2.035 25.212-14.426 25.212-29.235 0-5.948-1.758-11.49-4.787-16.124l60.676-60.676c18.304 20.352 29.444 47.275 29.444 76.8 0 57.869-42.795 105.745-98.462 113.711v99.622c0 166.804-124.433 304.543-285.538 325.457v57.446zM140.497 819.503c16.663 16.662 43.677 16.662 60.34 0l682.666-682.667c16.661-16.661 16.661-43.678 0-60.339s-43.678-16.661-60.339 0l-682.667 682.666c-16.662 16.663-16.662 43.677 0 60.34zM183.795 491.763c0 39.881 7.113 78.099 20.139 113.457l69.215-69.215c-2.641-14.345-4.020-29.134-4.020-44.242v-99.622c0-42.462-31.218-78.464-73.25-84.476-14.235-2.035-25.211-14.426-25.211-29.235 0-16.311 13.225-29.538 29.539-29.538h360.055l151.479-151.479c-34.266-75.196-110.012-127.471-198.097-127.471-105.385 0-193.101 74.82-213.271 174.187l-3.944 19.43h-96.223c-63.442 0-114.872 51.43-114.872 114.871 0 57.869 42.793 105.745 98.461 113.711v99.622zM384 161.105c7.272-35.827 29.022-66.398 58.876-85.333 20.467-12.983 44.736-20.497 70.767-20.497 26.027 0 50.295 7.514 70.763 20.497 29.854 18.935 51.605 49.506 58.876 85.333h-259.281z" />
<glyph unicode="&#xe923;" glyph-name="bell-ringing" d="M885.909 264.196c-36.258 38.118-94.225 99.059-94.225 273.964 0 141.643-99.315 255.031-233.229 282.849v37.99c0 32.212-26.103 58.334-58.3 58.334-32.192 0-58.295-26.123-58.295-58.334v-37.99c-133.915-27.818-233.229-141.206-233.229-282.849 0-174.904-57.967-235.845-94.225-273.964-2.401-2.526-4.707-4.949-6.895-7.3-10.938-11.759-15.787-25.813-15.695-39.578 0.201-29.897 23.662-58.334 58.516-58.334h699.647c34.859 0 58.338 28.437 58.517 58.334 0.094 13.764-4.757 27.84-15.693 39.578-2.189 2.351-4.497 4.779-6.895 7.3zM214.92 246.49c38.683 50.987 80.976 135.497 81.176 290.613 0 0.182-0.027 0.355-0.055 0.529s-0.055 0.346-0.055 0.529c0 112.768 91.403 204.17 204.169 204.17 112.768 0 204.173-91.403 204.173-204.17 0-0.183-0.030-0.355-0.055-0.529s-0.055-0.346-0.055-0.529c0.201-155.133 42.492-239.643 81.178-290.613h-570.475zM500.156-16.017c64.388 0 116.617 52.228 116.617 116.668h-233.229c0-64.439 52.229-116.668 116.613-116.668zM249.007 890.525c12.4-20.038 6.209-46.333-13.829-58.734-53.652-33.202-92.941-85.342-108.443-147.592-5.694-22.866-28.847-36.786-51.712-31.092s-36.786 28.847-31.092 51.712c21.072 84.62 74.459 155.050 146.342 199.535 20.038 12.4 46.334 6.208 58.734-13.829zM788.821 831.791c-20.036 12.4-26.227 38.696-13.828 58.734s38.694 26.229 58.735 13.829c71.881-44.484 125.269-114.915 146.342-199.535 5.692-22.865-8.226-46.018-31.091-51.712-22.869-5.694-46.020 8.226-51.716 31.092-15.501 62.249-54.788 114.39-108.442 147.592z" />
<glyph unicode="&#xe924;" glyph-name="birthday-cake" d="M981.333 64h-59.733v213.333c0 93.867-76.8 170.667-170.667 170.667h-110.933v128.001c0 21.333-8.533 38.4-17.067 51.2 17.067 21.333 25.6 51.2 25.6 81.067 0 55.467-29.867 132.267-76.8 192l-42.667 55.467-29.867-64c-21.333-46.933-42.667-72.533-59.733-93.867l-8.533-12.8c-8.533-12.8-17.067-25.6-21.333-42.667-8.533-17.067-8.533-34.133-8.533-55.467v-4.267c0-17.067 4.267-29.867 12.8-42.667-17.067-17.067-29.867-38.4-29.867-64v-128.001h-110.933c-93.867 0-170.667-76.8-170.667-170.667v-213.333h-59.733c-21.333 0-42.667-21.333-42.667-42.667s21.333-42.667 42.667-42.667h938.667c21.333 0 42.667 21.333 42.667 42.667s-21.333 42.667-42.667 42.667zM490.667 712.534c0 4.267 4.267 8.533 12.8 17.067l8.533 12.8c8.533 12.8 21.333 25.6 34.133 46.933 17.067-34.133 21.333-64 21.333-81.067 0-21.333-17.067-42.667-34.133-46.933h-4.267c-8.533 0-17.067 0-17.067 0-17.067 0-21.333 12.8-25.6 25.6 0 12.8 0 21.333 4.267 25.6zM469.333 576.001h85.333v-128.001h-85.333v128.001zM640 362.667c0-72.533-55.467-128-128-128s-128 55.467-128 128h256zM187.733 277.333c0 46.933 38.4 85.333 85.333 85.333h25.6v-64c0-34.133-29.867-64-64-64h-46.933v42.667zM836.267 64h-648.533v85.333h46.933c51.2 0 98.133 25.6 123.733 64 38.4-38.4 93.867-64 153.6-64s115.2 25.6 153.6 64c25.6-38.4 72.533-64 123.733-64h46.933v-85.333zM836.267 234.667h-46.933c-34.133 0-64 29.867-64 64v64h25.6c46.933 0 85.333-38.4 85.333-85.333v-42.667z" />
<glyph unicode="&#xe925;" glyph-name="browser" d="M682.667 789.333c-23.565 0-42.667-19.103-42.667-42.667s19.102-42.667 42.667-42.667c23.565 0 42.667 19.103 42.667 42.667s-19.102 42.667-42.667 42.667zM868.42 783.085c-8.333 8.332-21.841 8.332-30.174 0l-6.246-6.248-6.246 6.248c-8.333 8.332-21.841 8.332-30.174 0-8.329-8.331-8.329-21.839 0-30.17l6.251-6.249-6.251-6.249c-8.329-8.331-8.329-21.839 0-30.17 8.333-8.332 21.841-8.332 30.174 0l6.246 6.248 6.246-6.248c8.333-8.332 21.841-8.332 30.174 0 8.329 8.331 8.329 21.839 0 30.17l-6.251 6.249 6.251 6.249c8.329 8.331 8.329 21.839 0 30.17zM554.667 768c11.78 0 21.333-9.551 21.333-21.333s-9.553-21.333-21.333-21.333h-64c-11.78 0-21.333 9.551-21.333 21.333s9.553 21.333 21.333 21.333h64zM0 832v-768c0-47.13 38.205-85.333 85.333-85.333h853.333c47.13 0 85.333 38.204 85.333 85.333v768c0 47.128-38.204 85.333-85.333 85.333h-853.333c-47.128 0-85.333-38.205-85.333-85.333zM85.333 832h853.333v-170.667h-853.333v170.667zM938.667 576v-512h-853.333v512h853.333z" />
<glyph unicode="&#xe926;" glyph-name="brush" d="M720.034 640.663h175.966c47.13 0 85.333-38.205 85.333-85.333v-450.673c0-70.694-57.306-128-128-128h-770.582c-36.71 0-56.282 43.281-32.036 70.844l91.645 104.188c13.703 15.578 21.261 35.614 21.261 56.358v347.283c0 47.128 38.205 85.333 85.333 85.333h209.78v146.020c0 72.156 58.492 130.65 130.65 130.65 72.154 0 130.65-58.494 130.65-130.65v-146.020zM458.735 555.33h-209.78v-107.33h647.046v107.33h-175.966c-47.13 0-85.333 38.205-85.333 85.333v146.020c0 25.027-20.292 45.316-45.316 45.316-25.028 0-45.316-20.289-45.316-45.317v-146.020c0-47.128-38.208-85.333-85.333-85.333zM248.954 362.667v-154.62c0-41.493-15.116-81.566-42.522-112.721l-29.326-33.335h676.226c23.565 0 42.667 19.102 42.667 42.667v258.010h-647.046z" />
<glyph unicode="&#xe927;" glyph-name="buildings" d="M192 490.667c-11.782 0-21.333-9.553-21.333-21.333v-63.351c0-11.785 9.551-21.333 21.333-21.333h63.354c11.782 0 21.333 9.549 21.333 21.333v63.351c0 11.78-9.551 21.333-21.333 21.333h-63.354zM170.667 256c0 11.78 9.551 21.333 21.333 21.333h63.354c11.782 0 21.333-9.553 21.333-21.333v-63.351c0-11.785-9.551-21.333-21.333-21.333h-63.354c-11.782 0-21.333 9.549-21.333 21.333v63.351zM362.667 490.667c-11.782 0-21.333-9.553-21.333-21.333v-63.351c0-11.785 9.551-21.333 21.333-21.333h63.354c11.782 0 21.331 9.549 21.331 21.333v63.351c0 11.78-9.549 21.333-21.331 21.333h-63.354zM341.333 256c0 11.78 9.551 21.333 21.333 21.333h63.354c11.782 0 21.331-9.553 21.331-21.333v-63.351c0-11.785-9.549-21.333-21.331-21.333h-63.354c-11.782 0-21.333 9.549-21.333 21.333v63.351zM704 704c-11.78 0-21.333-9.551-21.333-21.333v-63.354c0-11.782 9.553-21.333 21.333-21.333h63.351c11.785 0 21.333 9.551 21.333 21.333v63.354c0 11.782-9.549 21.333-21.333 21.333h-63.351zM682.667 469.333c0 11.78 9.553 21.333 21.333 21.333h63.351c11.785 0 21.333-9.553 21.333-21.333v-63.351c0-11.785-9.549-21.333-21.333-21.333h-63.351c-11.78 0-21.333 9.549-21.333 21.333v63.351zM506.829 917.333c-70.694 0-128-57.308-128-128v-109.037h-208.162c-70.692 0-128-57.307-128-128v-509.63c0-35.345 28.654-64 64-64h810.667c35.345 0 64 28.655 64 64v746.667c0 70.692-57.306 128-128 128h-346.505zM170.667 594.963h250.217l19.935-0.571c23.078-0.661 41.442-19.561 41.442-42.649v-487.743h-354.261v488.297c0 23.564 19.102 42.666 42.667 42.666zM896 64h-328.405v128h200.405c23.565 0 42.667 19.102 42.667 42.667s-19.102 42.667-42.667 42.667h-200.405v274.409c0 62.13-44.331 114.15-103.433 125.639v111.951c0 23.564 19.102 42.667 42.667 42.667h346.505c23.565 0 42.667-19.103 42.667-42.667v-725.333z" />
<glyph unicode="&#xe928;" glyph-name="calendar" d="M234.667 362.667c-11.782 0-21.333-9.553-21.333-21.333v-85.333c0-11.78 9.551-21.333 21.333-21.333h85.333c11.782 0 21.333 9.553 21.333 21.333v85.333c0 11.78-9.551 21.333-21.333 21.333h-85.333zM448 341.333c0 11.78 9.553 21.333 21.333 21.333h85.333c11.78 0 21.333-9.553 21.333-21.333v-85.333c0-11.78-9.553-21.333-21.333-21.333h-85.333c-11.78 0-21.333 9.553-21.333 21.333v85.333zM704 362.667c-11.78 0-21.333-9.553-21.333-21.333v-85.333c0-11.78 9.553-21.333 21.333-21.333h85.333c11.78 0 21.333 9.553 21.333 21.333v85.333c0 11.78-9.553 21.333-21.333 21.333h-85.333zM384 874.667c0 23.564-19.103 42.667-42.667 42.667s-42.667-19.103-42.667-42.667v-64h-128c-70.692 0-128-57.308-128-128v-576c0-70.694 57.308-128 128-128h682.667c70.694 0 128 57.306 128 128v576c0 70.692-57.306 128-128 128h-128v64c0 23.564-19.102 42.667-42.667 42.667s-42.667-19.103-42.667-42.667v-64h-256v64zM170.667 725.333h128v-64c0-23.564 19.103-42.667 42.667-42.667s42.667 19.103 42.667 42.667v64h256v-64c0-23.564 19.102-42.667 42.667-42.667s42.667 19.103 42.667 42.667v64h128c23.565 0 42.667-19.103 42.667-42.667v-149.333h-768v149.333c0 23.564 19.103 42.667 42.667 42.667zM128 448h768v-341.333c0-23.565-19.102-42.667-42.667-42.667h-682.667c-23.564 0-42.667 19.102-42.667 42.667v341.333z" />
<glyph unicode="&#xe929;" glyph-name="calendar-simple" d="M213.333 298.667c0 11.78 9.551 21.333 21.333 21.333h85.333c11.782 0 21.333-9.553 21.333-21.333v-85.333c0-11.78-9.551-21.333-21.333-21.333h-85.333c-11.782 0-21.333 9.553-21.333 21.333v85.333zM469.333 320c-11.78 0-21.333-9.553-21.333-21.333v-85.333c0-11.78 9.553-21.333 21.333-21.333h85.333c11.78 0 21.333 9.553 21.333 21.333v85.333c0 11.78-9.553 21.333-21.333 21.333h-85.333zM448 512c0 11.78 9.553 21.333 21.333 21.333h85.333c11.78 0 21.333-9.553 21.333-21.333v-85.333c0-11.78-9.553-21.333-21.333-21.333h-85.333c-11.78 0-21.333 9.553-21.333 21.333v85.333zM704 533.333c-11.78 0-21.333-9.553-21.333-21.333v-85.333c0-11.78 9.553-21.333 21.333-21.333h85.333c11.78 0 21.333 9.553 21.333 21.333v85.333c0 11.78-9.553 21.333-21.333 21.333h-85.333zM341.333 917.333c23.564 0 42.667-19.103 42.667-42.667v-64h256v64c0 23.564 19.102 42.667 42.667 42.667s42.667-19.103 42.667-42.667v-64h128c70.694 0 128-57.308 128-128v-576c0-70.694-57.306-128-128-128h-682.667c-70.692 0-128 57.306-128 128v576c0 70.692 57.308 128 128 128h128v64c0 23.564 19.103 42.667 42.667 42.667zM298.667 725.333h-128c-23.564 0-42.667-19.103-42.667-42.667v-576c0-23.565 19.103-42.667 42.667-42.667h682.667c23.565 0 42.667 19.102 42.667 42.667v576c0 23.564-19.102 42.667-42.667 42.667h-128v-64c0-23.564-19.102-42.667-42.667-42.667s-42.667 19.103-42.667 42.667v64h-256v-64c0-23.564-19.103-42.667-42.667-42.667s-42.667 19.103-42.667 42.667v64z" />
<glyph unicode="&#xe92a;" glyph-name="camera" d="M512 209.067c-113.107 0-204.8 91.691-204.8 204.8s91.692 204.8 204.8 204.8c113.109 0 204.8-91.691 204.8-204.8s-91.691-204.8-204.8-204.8zM512 294.4c65.98 0 119.467 53.487 119.467 119.467s-53.487 119.467-119.467 119.467c-65.98 0-119.466-53.487-119.466-119.467s53.487-119.467 119.466-119.467zM1024 635.733v-494.933c0-47.13-38.204-85.333-85.333-85.333h-853.333c-47.128 0-85.333 38.204-85.333 85.333v494.933c0 47.128 38.205 85.333 85.333 85.333v25.6c0 23.564 19.103 42.667 42.667 42.667h68.267c23.564 0 42.667-19.103 42.667-42.667v-22.378c23.582 6.676 43.583 23.332 54.198 46.26l25.294 54.635c13.968 30.171 44.189 49.483 77.437 49.483h232.277c33.246 0 63.467-19.311 77.436-49.483l25.293-54.635c13.969-30.171 44.19-49.483 77.44-49.483h130.359c47.13 0 85.333-38.205 85.333-85.333zM938.667 140.8v494.933h-130.359c-66.496 0-126.938 38.622-154.876 98.965l-25.293 54.635h-232.277l-25.294-54.634c-27.936-60.343-88.378-98.966-154.874-98.966h-130.36v-494.933h853.333z" />
<glyph unicode="&#xe92b;" glyph-name="sandglass" d="M554.667 320c0-23.565-19.102-42.667-42.667-42.667s-42.667 19.102-42.667 42.667c0 23.565 19.102 42.667 42.667 42.667s42.667-19.102 42.667-42.667zM512 106.667c23.565 0 42.667 19.102 42.667 42.667s-19.102 42.667-42.667 42.667c-23.565 0-42.667-19.102-42.667-42.667s19.102-42.667 42.667-42.667zM128 917.333h768c23.565 0 42.667-19.103 42.667-42.667s-19.102-42.667-42.667-42.667h-43.093c-1.732-79.061-9.199-136.33-30.404-190.18-24.474-62.144-66.121-116.491-127.74-193.684-0.004-0.021-0.017-0.073-0.017-0.137 0-0.077 0.021-0.141 0.030-0.158 61.615-77.193 103.253-131.52 127.727-193.664 21.205-53.85 28.672-111.117 30.404-190.178h43.093c23.565 0 42.667-19.102 42.667-42.667s-19.102-42.667-42.667-42.667h-768c-23.564 0-42.667 19.102-42.667 42.667s19.103 42.667 42.667 42.667h43.092c1.732 79.061 9.201 136.329 30.406 190.178 24.472 62.144 66.118 116.484 127.735 193.673 0.006 0.017 0.020 0.073 0.020 0.149l-0.004 0.073-0.023 0.085c-61.617 77.193-103.256 131.518-127.728 193.662-21.205 53.85-28.675 111.119-30.406 190.18h-43.092c-23.564 0-42.667 19.103-42.667 42.667s19.103 42.667 42.667 42.667zM767.543 832h-511.086c1.74-73.868 8.66-118.842 24.439-158.913 18.977-48.192 51.957-92.689 115.020-171.689 24.892-31.185 24.892-75.61 0-106.795-63.063-79.002-96.043-123.499-115.020-171.691-15.779-40.068-22.7-85.043-24.439-158.912h511.086c-1.741 73.869-8.661 118.844-24.439 158.912-18.978 48.192-51.959 92.689-115.021 171.691-24.892 31.185-24.892 75.61 0 106.795 63.061 79.001 96.043 123.498 115.021 171.689 15.778 40.071 22.699 85.045 24.439 158.913z" />
<glyph unicode="&#xe92c;" glyph-name="car" d="M981.333 452.267c0 4.267 0 8.533-4.267 12.8l-85.333 162.135c-25.6 38.4-64 64-110.933 64h-85.333c0 72.533-59.733 132.267-132.267 132.267h-379.733c-72.533 0-128-55.467-128-128v-439.469c0-46.933 38.4-85.333 85.333-85.333h29.867c17.067-51.2 68.267-89.6 123.733-89.6 59.733 0 106.667 38.4 123.733 89.6h157.867c17.067-51.2 68.267-89.6 123.733-89.6 59.733 0 106.667 38.4 123.733 89.6h72.533c46.933 0 85.333 38.4 85.333 85.333v187.733c0 4.267 0 4.267 0 8.533zM695.467 601.602h85.333c17.067 0 29.867-8.533 38.4-17.067l51.2-98.135h-174.933v115.202zM294.4 166.4c-25.6 0-46.933 21.333-46.933 46.933s21.333 46.933 46.933 46.933c25.6 0 46.933-21.333 46.933-46.933s-21.333-46.933-46.933-46.933zM699.733 166.4c-25.6 0-46.933 21.333-46.933 46.933s21.333 46.933 46.933 46.933c25.6 0 46.933-21.333 46.933-46.933s-21.333-46.933-46.933-46.933zM896 256h-72.533c-17.067 51.2-68.267 89.6-123.733 89.6s-106.667-38.4-123.733-89.6h-157.867c-17.067 51.2-68.267 89.6-123.733 89.6s-106.667-38.4-123.733-89.6h-29.867v439.469c0 25.6 17.067 42.667 42.667 42.667h379.733c25.6 0 46.933-21.333 46.933-46.933v-247.469c0-21.333 21.333-42.667 42.667-42.667h243.2v-145.067z" />
<glyph unicode="&#xe92d;" glyph-name="cd" d="M512 21.333c-235.642 0-426.667 191.027-426.667 426.667 0 235.642 191.025 426.667 426.667 426.667 235.639 0 426.667-191.025 426.667-426.667 0-235.639-191.027-426.667-426.667-426.667zM512-64c282.769 0 512 229.231 512 512s-229.231 512-512 512c-282.77 0-512-229.23-512-512s229.23-512 512-512zM512 362.667c-47.13 0-85.333 38.204-85.333 85.333s38.204 85.333 85.333 85.333c47.13 0 85.333-38.204 85.333-85.333s-38.204-85.333-85.333-85.333zM512 277.333c94.255 0 170.667 76.412 170.667 170.667 0 94.257-76.412 170.667-170.667 170.667-94.257 0-170.667-76.41-170.667-170.667 0-94.255 76.41-170.667 170.667-170.667zM381.377 763.351c41.413 17.153 85.797 25.982 130.623 25.982 23.565 0 42.667-19.103 42.667-42.667s-19.102-42.667-42.667-42.667c-33.617 0-66.906-6.621-97.967-19.487-31.059-12.865-59.281-31.722-83.052-55.494s-42.629-51.993-55.494-83.052c-12.865-31.061-19.487-64.35-19.487-97.967 0-23.565-19.103-42.667-42.667-42.667s-42.667 19.102-42.667 42.667c0 44.826 8.829 89.21 25.982 130.623s42.296 79.040 73.992 110.736c31.695 31.696 69.324 56.838 110.736 73.992zM810.667 490.667c23.565 0 42.667-19.102 42.667-42.667 0-44.826-8.828-89.212-25.984-130.624-17.152-41.412-42.295-79.040-73.988-110.737-31.697-31.693-69.325-56.836-110.737-73.988-41.412-17.156-85.798-25.984-130.624-25.984-23.565 0-42.667 19.102-42.667 42.667s19.102 42.667 42.667 42.667c33.617 0 66.906 6.622 97.967 19.486 31.061 12.868 59.281 31.723 83.051 55.497 23.774 23.77 42.628 51.989 55.497 83.051 12.864 31.061 19.486 64.35 19.486 97.967 0 23.565 19.102 42.667 42.667 42.667z" />
<glyph unicode="&#xe92e;" glyph-name="chevron-circle-down" d="M268.497 563.503c-16.663-16.662-16.663-43.678 0-60.339l213.333-213.333c16.661-16.661 43.678-16.661 60.339 0l213.333 213.333c16.661 16.661 16.661 43.677 0 60.339s-43.678 16.663-60.339 0l-183.164-183.164-183.163 183.164c-16.662 16.663-43.677 16.663-60.34 0zM512 21.333c-235.642 0-426.667 191.027-426.667 426.667 0 235.642 191.025 426.667 426.667 426.667 235.639 0 426.667-191.025 426.667-426.667 0-235.639-191.027-426.667-426.667-426.667zM512-64c282.769 0 512 229.231 512 512s-229.231 512-512 512c-282.77 0-512-229.23-512-512s229.23-512 512-512z" />
<glyph unicode="&#xe92f;" glyph-name="book" d="M528.235 803.106c31.356 24.141 107.11 71.561 218.432 71.561 86.925 0 166.626-14.457 218.057-26.54 35.755-8.401 59.277-40.901 59.277-77.631v-689.966c0-29.12-28.732-50.317-57.067-43.593-51.341 12.186-132.083 27.063-220.267 27.063-111.322 0-187.076-47.42-218.432-71.561-9.335-7.189-23.134-7.189-32.469 0-31.356 24.141-107.112 71.561-218.432 71.561-88.183 0-168.927-14.878-220.268-27.063-28.336-6.724-57.065 14.473-57.065 43.593v689.966c0 36.73 23.522 69.231 59.279 77.631 51.431 12.083 131.129 26.54 218.055 26.54 111.32 0 187.076-47.419 218.432-71.561 9.335-7.188 23.134-7.188 32.469 0zM443.703 735.492c-22.227 17.115-80.081 53.841-166.37 53.841-74.634 0-144.375-11.941-192-22.767v-636.326c52.362 10.035 119.583 19.093 192 19.093 105.288 0 185.118-34.65 234.667-64.789 49.549 30.14 129.378 64.789 234.667 64.789 72.418 0 139.639-9.058 192-19.093v636.326c-47.625 10.827-117.367 22.767-192 22.767-86.289 0-144.141-36.726-166.37-53.841-7.974-6.139-16.606-11.055-25.63-14.749v-358.077c0-23.565-19.102-42.667-42.667-42.667s-42.667 19.102-42.667 42.667v358.077c-9.024 3.693-17.655 8.609-25.63 14.749z" />
<glyph unicode="&#xe930;" glyph-name="book-25d" d="M128 789.333v-682.667c0-70.537 56.908-128 127.758-128h555.151c47.433 0 85.090 38.507 85.090 85.325v768.008c0 46.818-37.658 85.334-85.099 85.334h-555.142c-70.85 0-127.759-57.465-127.759-128zM213.334 192c0 23.565 19.102 42.667 42.667 42.667h554.666v-42.667h-426.666c-23.564 0-42.667-19.102-42.667-42.667s19.102-42.667 42.667-42.667h426.666v-42.667h-554.908c-23.407 0-42.425 18.944-42.425 42.667v85.333zM810.667 320h-554.666c-14.961 0-29.321-2.569-42.667-7.283v476.617c0 23.721 19.019 42.667 42.426 42.667h554.907c0 0 0 0 0 0v-512zM682.667 704v-85.333h-341.333v85.333h341.333zM341.333 789.333c-47.128 0-85.333-38.205-85.333-85.333v-85.333c0-47.128 38.205-85.333 85.333-85.333h341.333c47.13 0 85.333 38.205 85.333 85.333v85.333c0 47.128-38.204 85.333-85.333 85.333h-341.333z" />
<glyph unicode="&#xe931;" glyph-name="bookmark" d="M520.533 917.333c-28.275 0-51.2-22.923-51.2-51.2v-353.818c0-46.468 56.922-68.907 88.631-34.935l82.035 87.897 82.035-87.897c31.71-33.971 88.631-11.533 88.631 34.935v353.818c0 28.277-22.925 51.2-51.2 51.2h-238.933zM554.667 598.913v233.087h170.667v-233.087l-47.902 51.325c-20.241 21.687-54.622 21.687-74.863 0l-47.902-51.325zM426.667 822.521v-85.333h-85.333v-673.183h512c23.565 0 42.667 19.102 42.667 42.667v587.85c0 23.564-19.102 42.667-42.667 42.667v85.333c70.694 0 128-57.307 128-128v-587.85c0-70.694-57.306-128-128-128h-682.667c-70.692 0-128 57.306-128 128v587.85c0 70.693 57.308 128 128 128h256zM256 64.004v673.183h-85.333c-23.564 0-42.667-19.102-42.667-42.667v-587.85c0-23.565 19.103-42.667 42.667-42.667h85.333z" />
<glyph unicode="&#xe932;" glyph-name="bookmark-simple" d="M298.667 832c-23.564 0-42.667-19.103-42.667-42.667v-745.429l218.645 233.25c20.228 21.577 54.481 21.577 74.709 0l218.645-233.25v745.429c0 23.564-19.102 42.667-42.667 42.667h-426.667zM170.667 789.333c0 70.692 57.308 128 128 128h426.667c70.694 0 128-57.307 128-128v-745.429c0-77.359-94.686-114.799-147.593-58.359l-193.741 206.682-193.743-206.682c-52.907-56.439-147.59-18.999-147.59 58.359v745.429z" />
<glyph unicode="&#xe933;" glyph-name="chevron-circle-down-filled" d="M512 21.333c-235.642 0-426.667 191.027-426.667 426.667 0 235.642 191.025 426.667 426.667 426.667 235.639 0 426.667-191.025 426.667-426.667 0-235.639-191.027-426.667-426.667-426.667zM512-64c282.769 0 512 229.231 512 512s-229.231 512-512 512c-282.77 0-512-229.23-512-512s229.23-512 512-512zM481.83 307.503l-195.66 195.661c-26.879 26.88-7.842 72.836 30.17 72.836h391.321c38.012 0 57.050-45.956 30.17-72.836l-195.661-195.661c-16.661-16.661-43.678-16.661-60.339 0z" />
<glyph unicode="&#xe934;" glyph-name="chevron-circle-left" d="M627.503 691.503c-16.661 16.662-43.678 16.662-60.339 0l-213.333-213.334c-16.662-16.661-16.662-43.678 0-60.339l213.333-213.333c16.661-16.661 43.678-16.661 60.339 0s16.661 43.678 0 60.339l-183.164 183.164 183.164 183.163c16.661 16.663 16.661 43.677 0 60.34zM512 21.333c-235.642 0-426.667 191.027-426.667 426.667 0 235.642 191.025 426.667 426.667 426.667 235.639 0 426.667-191.025 426.667-426.667 0-235.639-191.027-426.667-426.667-426.667zM512-64c282.769 0 512 229.231 512 512s-229.231 512-512 512c-282.77 0-512-229.23-512-512s229.23-512 512-512z" />
<glyph unicode="&#xe935;" glyph-name="chevron-circle-left-filled" d="M512 21.333c-235.642 0-426.667 191.027-426.667 426.667 0 235.642 191.025 426.667 426.667 426.667 235.639 0 426.667-191.025 426.667-426.667 0-235.639-191.027-426.667-426.667-426.667zM512-64c282.769 0 512 229.231 512 512s-229.231 512-512 512c-282.77 0-512-229.23-512-512s229.23-512 512-512zM328.837 417.83l195.66-195.661c26.88-26.88 72.836-7.842 72.836 30.17v391.321c0 38.012-45.956 57.048-72.836 30.17l-195.66-195.661c-16.663-16.661-16.663-43.678 0-60.339z" />
<glyph unicode="&#xe936;" glyph-name="chevron-circle-right" d="M396.497 691.503c16.663 16.662 43.678 16.662 60.339 0l213.333-213.334c16.661-16.661 16.661-43.678 0-60.339l-213.333-213.333c-16.661-16.661-43.677-16.661-60.339 0s-16.662 43.678 0 60.339l183.164 183.164-183.164 183.163c-16.662 16.663-16.662 43.677 0 60.34zM512 21.333c-235.642 0-426.667 191.027-426.667 426.667 0 235.642 191.025 426.667 426.667 426.667 235.639 0 426.667-191.025 426.667-426.667 0-235.639-191.027-426.667-426.667-426.667zM512-64c282.769 0 512 229.231 512 512s-229.231 512-512 512c-282.77 0-512-229.23-512-512s229.23-512 512-512z" />
<glyph unicode="&#xe937;" glyph-name="chevron-circle-right-filled" d="M512 21.333c-235.642 0-426.667 191.027-426.667 426.667 0 235.642 191.025 426.667 426.667 426.667 235.639 0 426.667-191.025 426.667-426.667 0-235.639-191.027-426.667-426.667-426.667zM512-64c282.769 0 512 229.231 512 512s-229.231 512-512 512c-282.77 0-512-229.23-512-512s229.23-512 512-512zM695.164 417.83l-195.661-195.661c-26.88-26.88-72.836-7.842-72.836 30.17v391.321c0 38.012 45.956 57.048 72.836 30.17l195.661-195.661c16.661-16.661 16.661-43.678 0-60.339z" />
<glyph unicode="&#xe938;" glyph-name="chevron-double-large-left" d="M584.836 76.497c-16.661-16.661-43.678-16.661-60.339 0l-341.334 341.333c-16.662 16.661-16.662 43.678 0 60.339l341.334 341.334c16.661 16.662 43.678 16.662 60.339 0s16.661-43.677 0-60.34l-311.163-311.163 311.163-311.164c16.661-16.661 16.661-43.678 0-60.339zM840.836 76.497c-16.661-16.661-43.678-16.661-60.339 0l-341.333 341.333c-16.663 16.661-16.663 43.678 0 60.339l341.333 341.334c16.661 16.662 43.678 16.662 60.339 0s16.661-43.677 0-60.34l-311.164-311.163 311.164-311.164c16.661-16.661 16.661-43.678 0-60.339z" />
<glyph unicode="&#xe939;" glyph-name="chevron-double-large-right" d="M439.164 76.497c16.661-16.661 43.678-16.661 60.339 0l341.333 341.333c16.661 16.661 16.661 43.678 0 60.339l-341.333 341.334c-16.661 16.662-43.678 16.662-60.339 0-16.663-16.663-16.663-43.677 0-60.34l311.164-311.163-311.164-311.164c-16.663-16.661-16.663-43.678 0-60.339zM183.163 76.497c16.663-16.661 43.677-16.661 60.34 0l341.333 341.333c16.661 16.661 16.661 43.678 0 60.339l-341.333 341.334c-16.663 16.662-43.677 16.662-60.34 0s-16.662-43.677 0-60.34l311.164-311.163-311.164-311.164c-16.662-16.661-16.662-43.678 0-60.339z" />
<glyph unicode="&#xe93a;" glyph-name="chevron-double-large-up" d="M140.497 375.164c-16.662 16.661-16.662 43.678 0 60.339l341.334 341.334c16.661 16.662 43.678 16.662 60.339 0l341.333-341.334c16.661-16.661 16.661-43.678 0-60.339s-43.678-16.661-60.339 0l-311.164 311.163-311.163-311.163c-16.663-16.661-43.677-16.661-60.34 0zM140.497 119.164c-16.662 16.661-16.662 43.678 0 60.339l341.334 341.333c16.661 16.662 43.678 16.662 60.339 0l341.333-341.333c16.661-16.661 16.661-43.678 0-60.339s-43.678-16.661-60.339 0l-311.164 311.164-311.163-311.164c-16.663-16.661-43.677-16.661-60.34 0z" />
<glyph unicode="&#xe93b;" glyph-name="chevron-double-left" d="M542.17 691.503c-16.661 16.662-43.678 16.662-60.339 0l-213.334-213.334c-16.662-16.661-16.662-43.678 0-60.339l213.334-213.333c16.661-16.661 43.678-16.661 60.339 0s16.661 43.678 0 60.339l-183.163 183.164 183.163 183.163c16.661 16.663 16.661 43.677 0 60.34zM755.503 691.503c-16.661 16.662-43.678 16.662-60.339 0l-213.333-213.334c-16.661-16.661-16.661-43.678 0-60.339l213.333-213.333c16.661-16.661 43.678-16.661 60.339 0s16.661 43.678 0 60.339l-183.164 183.164 183.164 183.163c16.661 16.663 16.661 43.677 0 60.34z" />
<glyph unicode="&#xe93c;" glyph-name="chevron-double-right" d="M481.83 691.503c16.661 16.662 43.678 16.662 60.339 0l213.333-213.334c16.661-16.661 16.661-43.678 0-60.339l-213.333-213.333c-16.661-16.661-43.678-16.661-60.339 0s-16.661 43.678 0 60.339l183.164 183.164-183.164 183.163c-16.661 16.663-16.661 43.677 0 60.34zM268.497 691.503c16.663 16.662 43.677 16.662 60.34 0l213.333-213.334c16.661-16.661 16.661-43.678 0-60.339l-213.333-213.333c-16.663-16.661-43.677-16.661-60.34 0s-16.662 43.678 0 60.339l183.164 183.164-183.164 183.163c-16.662 16.663-16.662 43.677 0 60.34z" />
<glyph unicode="&#xe93d;" glyph-name="chevron-double-up" d="M268.497 417.83c-16.662 16.661-16.662 43.678 0 60.339l213.334 213.334c16.661 16.662 43.678 16.662 60.339 0l213.333-213.334c16.661-16.661 16.661-43.678 0-60.339s-43.678-16.661-60.339 0l-183.164 183.163-183.163-183.163c-16.663-16.661-43.677-16.661-60.34 0zM268.497 204.497c-16.662 16.661-16.662 43.678 0 60.339l213.334 213.333c16.661 16.661 43.678 16.661 60.339 0l213.333-213.333c16.661-16.661 16.661-43.678 0-60.339s-43.678-16.661-60.339 0l-183.164 183.164-183.163-183.164c-16.663-16.661-43.677-16.661-60.34 0z" />
<glyph unicode="&#xe93e;" glyph-name="chevron-down" d="M268.497 563.503c-16.662-16.663-16.662-43.678 0-60.34l213.334-213.333c16.661-16.661 43.678-16.661 60.339 0l213.333 213.333c16.661 16.661 16.661 43.677 0 60.34s-43.678 16.662-60.339 0l-183.164-183.164-183.163 183.164c-16.663 16.662-43.677 16.662-60.34 0z" />
<glyph unicode="&#xe93f;" glyph-name="chevron-down-filled" d="M481.83 307.503l-195.66 195.661c-26.879 26.88-7.842 72.836 30.17 72.836h391.32c38.012 0 57.050-45.956 30.17-72.836l-195.661-195.661c-16.661-16.661-43.678-16.661-60.339 0z" />
<glyph unicode="&#xe940;" glyph-name="chevron-large-down" d="M140.497 648.837c-16.662-16.663-16.662-43.677 0-60.34l341.334-341.333c16.661-16.661 43.678-16.661 60.339 0l341.333 341.333c16.661 16.663 16.661 43.677 0 60.34s-43.678 16.662-60.339 0l-311.164-311.164-311.163 311.164c-16.663 16.662-43.677 16.662-60.34 0z" />
<glyph unicode="&#xe941;" glyph-name="chevron-circle-up" d="M268.497 332.497c-16.663 16.661-16.663 43.678 0 60.339l213.333 213.334c16.661 16.662 43.678 16.662 60.339 0l213.333-213.334c16.661-16.661 16.661-43.678 0-60.339s-43.678-16.661-60.339 0l-183.164 183.164-183.163-183.164c-16.662-16.661-43.677-16.661-60.34 0zM512 21.333c-235.642 0-426.667 191.027-426.667 426.667 0 235.642 191.025 426.667 426.667 426.667 235.639 0 426.667-191.025 426.667-426.667 0-235.639-191.027-426.667-426.667-426.667zM512-64c282.769 0 512 229.231 512 512s-229.231 512-512 512c-282.77 0-512-229.23-512-512s229.23-512 512-512z" />
<glyph unicode="&#xe942;" glyph-name="chevron-circle-up-filled" d="M512 21.333c-235.642 0-426.667 191.027-426.667 426.667 0 235.642 191.025 426.667 426.667 426.667 235.639 0 426.667-191.025 426.667-426.667 0-235.639-191.027-426.667-426.667-426.667zM512-64c282.769 0 512 229.231 512 512s-229.231 512-512 512c-282.77 0-512-229.23-512-512s229.23-512 512-512zM481.83 588.497l-195.66-195.66c-26.879-26.88-7.842-72.836 30.17-72.836h391.321c38.012 0 57.050 45.956 30.17 72.836l-195.661 195.66c-16.661 16.663-43.678 16.663-60.339 0z" />
<glyph unicode="&#xe943;" glyph-name="chevron-double-down" d="M268.497 478.17c-16.662-16.661-16.662-43.678 0-60.339l213.334-213.333c16.661-16.661 43.678-16.661 60.339 0l213.333 213.333c16.661 16.661 16.661 43.678 0 60.339s-43.678 16.661-60.339 0l-183.164-183.164-183.163 183.164c-16.663 16.661-43.677 16.661-60.34 0zM268.497 691.503c-16.662-16.663-16.662-43.677 0-60.34l213.334-213.333c16.661-16.661 43.678-16.661 60.339 0l213.333 213.333c16.661 16.663 16.661 43.677 0 60.34s-43.678 16.662-60.339 0l-183.164-183.164-183.163 183.164c-16.663 16.662-43.677 16.662-60.34 0z" />
<glyph unicode="&#xe944;" glyph-name="chevron-double-large-down" d="M140.497 520.836c-16.662-16.661-16.662-43.678 0-60.339l341.334-341.333c16.661-16.661 43.678-16.661 60.339 0l341.333 341.333c16.661 16.661 16.661 43.678 0 60.339s-43.678 16.662-60.339 0l-311.164-311.164-311.163 311.164c-16.663 16.662-43.677 16.662-60.34 0zM140.497 776.837c-16.662-16.663-16.662-43.677 0-60.34l341.334-341.333c16.661-16.661 43.678-16.661 60.339 0l341.333 341.333c16.661 16.663 16.661 43.677 0 60.34s-43.678 16.662-60.339 0l-311.164-311.164-311.163 311.164c-16.663 16.662-43.677 16.662-60.34 0z" />
<glyph unicode="&#xe945;" glyph-name="chevron-large-left" d="M712.836 819.503c-16.661 16.662-43.678 16.662-60.339 0l-341.334-341.334c-16.662-16.661-16.662-43.678 0-60.339l341.334-341.333c16.661-16.661 43.678-16.661 60.339 0s16.661 43.678 0 60.339l-311.163 311.164 311.163 311.163c16.661 16.663 16.661 43.677 0 60.34z" />
<glyph unicode="&#xe946;" glyph-name="chevron-large-right" d="M311.163 819.503c16.663 16.662 43.677 16.662 60.34 0l341.333-341.334c16.661-16.661 16.661-43.678 0-60.339l-341.333-341.333c-16.663-16.661-43.677-16.661-60.34 0s-16.662 43.678 0 60.339l311.164 311.164-311.164 311.163c-16.662 16.663-16.662 43.677 0 60.34z" />
<glyph unicode="&#xe947;" glyph-name="chevron-large-up" d="M140.497 247.164c-16.663 16.661-16.663 43.678 0 60.339l341.333 341.334c16.661 16.662 43.678 16.662 60.339 0l341.333-341.334c16.661-16.661 16.661-43.678 0-60.339s-43.678-16.661-60.339 0l-311.164 311.163-311.163-311.163c-16.663-16.661-43.677-16.661-60.34 0z" />
<glyph unicode="&#xe948;" glyph-name="chevron-left" d="M627.503 691.503c-16.661 16.662-43.678 16.662-60.339 0l-213.334-213.334c-16.662-16.661-16.662-43.678 0-60.339l213.334-213.333c16.661-16.661 43.678-16.661 60.339 0s16.661 43.678 0 60.339l-183.164 183.164 183.164 183.163c16.661 16.663 16.661 43.677 0 60.34z" />
<glyph unicode="&#xe949;" glyph-name="chevron-left-filled" d="M328.838 417.83l195.659-195.661c26.88-26.88 72.836-7.842 72.836 30.17v391.32c0 38.012-45.956 57.049-72.836 30.17l-195.659-195.66c-16.663-16.661-16.663-43.678 0-60.339z" />
<glyph unicode="&#xe94a;" glyph-name="clock" d="M554.667 704c0 23.564-19.102 42.667-42.667 42.667s-42.667-19.103-42.667-42.667v-266.667c0-11.793 4.881-23.061 13.487-31.125l170.667-160c17.19-16.119 44.19-15.249 60.305 1.946 16.119 17.19 15.249 44.19-1.946 60.305l-157.18 147.358v248.183zM1024 448c0 282.77-229.231 512-512 512s-512-229.23-512-512c0-282.769 229.23-512 512-512s512 229.231 512 512zM938.667 448c0-235.639-191.027-426.667-426.667-426.667-235.642 0-426.667 191.027-426.667 426.667 0 235.642 191.025 426.667 426.667 426.667 235.639 0 426.667-191.025 426.667-426.667z" />
<glyph unicode="&#xe94b;" glyph-name="cloud" d="M220.517 622.465c59.663 99.733 167.649 166.868 291.483 166.868 151.002 0 278.298-99.674 323.46-236.896 108.531-25.325 188.54-124.171 188.54-241.082 0-135.782-108.062-247.356-243.2-247.356h-503.467c-153.988 0-277.333 127.172-277.333 282.197 0 135.45 94.033 249.483 220.517 276.268zM327.779 623.753c129.62-24.186 226.888-139.888 226.888-277.556 0-23.561-19.102-42.667-42.667-42.667s-42.667 19.106-42.667 42.667c0 109.363-86.474 196.556-191.438 196.866-10.557-0.297-15.886-0.674-25.201-1.6-93.716-12.285-167.361-94.436-167.361-195.266 0-109.555 86.783-196.864 192-196.864h503.467c86.366 0 157.867 71.71 157.867 162.022 0 84.463-62.656 152.794-141.372 161.152-17.95 1.907-32.759 14.903-36.979 32.452-27.614 114.858-128.845 199.040-248.316 199.040-72.141 0-137.57-30.632-184.221-80.247z" />
<glyph unicode="&#xe94c;" glyph-name="coffee" d="M663.279 832.005c0 23.564 19.102 42.667 42.667 42.667s42.667-19.102 42.667-42.667c0-29.57-5.453-53.689-18.138-73.335-11.844-18.346-27.61-28.491-36.39-34.144l-1.182-0.76c-9.613-6.215-11.025-7.699-12.207-9.527-0.892-1.382-4.493-7.616-4.493-27.049 0-23.564-19.102-42.667-42.667-42.667s-42.667 19.103-42.667 42.667c0 29.57 5.453 53.69 18.138 73.335 11.844 18.346 27.61 28.492 36.39 34.144l1.182 0.76c9.613 6.215 11.025 7.699 12.207 9.527 0.892 1.382 4.493 7.615 4.493 27.048zM256 448.004c23.564 0 42.667-19.102 42.667-42.667v-85.786c0-69.726 34.537-110.588 68.393-136.175 18.799-14.208 22.52-40.969 8.311-59.767s-40.966-22.519-59.764-8.311c-48.053 36.322-102.274 99.947-102.274 204.254v85.786c0 23.565 19.103 42.667 42.667 42.667zM583.049 614.825c45.35-2.584 86.319-6.628 112.457-12.899 44.151-10.595 79.39-23.782 100.211-49.531 9.173-11.344 14.238-23.678 17.020-35.479h59.166c83.337 0 144.452-78.37 124.143-159.198l-37.871-150.69c-14.012-55.761-63.488-95.339-120.969-96.764l-45.683-1.131c-19.964-53.299-47.953-96.021-89.852-125.786-48.99-34.799-110.652-47.343-184.491-47.343h-175.652c-92.347 0-168.985 25.131-222.272 79.65-53.122 54.349-76.588 131.315-76.588 221.581v237.013c0 1.126-0.007 2.317-0.014 3.563-0.106 18.402-0.282 49.135 20.443 74.84 20.934 25.967 56.243 39.114 100.436 49.351 49.432 11.45 160.375 16.565 265.635 16.667 53.662 0.052 107.567-1.206 153.882-3.845zM429.248 533.336c-106.921-0.105-208.065-5.571-246.459-14.467-43.633-10.108-52.238-18.509-53.26-19.776l-0.042-0.081c-0.078-0.192-0.367-0.969-0.657-2.769-0.72-4.467-0.829-10.287-0.829-21.995v-237.013c0-76.339 19.747-128.653 52.279-161.933 32.367-33.114 83.826-53.965 161.248-53.965h175.652c65.412 0 106.59 11.345 135.070 31.578 28.1 19.959 50.146 53.077 67.567 110.515 7.078 23.343 10.893 48.102 10.893 73.805v237.013c0 11.819-0.090 17.553-0.789 21.973-0.26 1.621-0.512 2.355-0.589 2.556-1.186 1.412-10.138 9.707-53.739 20.169-17.971 4.314-52.126 8.102-97.395 10.684-44.305 2.526-96.521 3.757-148.949 3.706zM813.436 195.034l21.658 0.538c19.157 0.478 35.648 13.666 40.32 32.256l37.871 150.69c6.767 26.94-13.602 53.065-41.382 53.065h-55.859v-194.347c0-14.276-0.887-28.361-2.607-42.202zM449.946 874.672c-23.565 0-42.668-19.102-42.668-42.667 0-19.433-3.6-25.667-4.492-27.048-1.181-1.828-2.595-3.312-12.209-9.527l-1.179-0.76c-8.784-5.653-24.548-15.799-36.393-34.144-12.684-19.646-18.135-43.765-18.135-73.335 0-23.564 19.102-42.667 42.667-42.667s42.667 19.103 42.667 42.667c0 19.434 3.6 25.668 4.492 27.049 1.181 1.828 2.594 3.312 12.207 9.527l1.182 0.76c8.781 5.653 24.546 15.798 36.39 34.144 12.685 19.645 18.138 43.765 18.138 73.335 0 23.564-19.102 42.667-42.667 42.667zM151.278 832.005c0 23.564 19.103 42.667 42.667 42.667s42.667-19.102 42.667-42.667c0-29.57-5.451-53.689-18.136-73.335-11.845-18.346-27.609-28.491-36.392-34.144l-1.179-0.76c-9.614-6.215-11.028-7.699-12.209-9.527-0.892-1.382-4.492-7.616-4.492-27.049 0-23.564-19.103-42.667-42.667-42.667s-42.667 19.103-42.667 42.667c0 29.57 5.451 53.69 18.135 73.335 11.845 18.346 27.609 28.492 36.393 34.144l1.179 0.76c9.614 6.215 11.028 7.699 12.209 9.527 0.892 1.382 4.492 7.615 4.492 27.048z" />
<glyph unicode="&#xe94d;" glyph-name="coin-circle" d="M512 21.333c-235.642 0-426.667 191.027-426.667 426.667 0 235.642 191.025 426.667 426.667 426.667 235.639 0 426.667-191.025 426.667-426.667 0-235.639-191.027-426.667-426.667-426.667zM512-64c282.769 0 512 229.231 512 512s-229.231 512-512 512c-282.77 0-512-229.23-512-512s229.23-512 512-512zM332.497 691.503c16.662 16.662 43.677 16.662 60.34 0l119.164-119.164 119.164 119.164c16.661 16.662 43.678 16.662 60.339 0s16.661-43.677 0-60.34l-136.836-136.836v-3.661h85.333c23.565 0 42.667-19.102 42.667-42.667s-19.102-42.667-42.667-42.667h-85.333v-42.667h85.333c23.565 0 42.667-19.102 42.667-42.667s-19.102-42.667-42.667-42.667h-85.333v-42.667c0-23.565-19.102-42.667-42.667-42.667s-42.667 19.102-42.667 42.667v42.667h-85.333c-23.564 0-42.667 19.102-42.667 42.667s19.102 42.667 42.667 42.667h85.333v42.667h-85.333c-23.564 0-42.667 19.102-42.667 42.667s19.102 42.667 42.667 42.667h85.333v3.661l-136.837 136.836c-16.662 16.663-16.662 43.677 0 60.34z" />
<glyph unicode="&#xe94e;" glyph-name="collapse-left" d="M85.334 789.333c0 23.564 19.102 42.667 42.667 42.667h768c23.565 0 42.667-19.103 42.667-42.667s-19.102-42.667-42.667-42.667h-768c-23.564 0-42.667 19.103-42.667 42.667zM384 448c0 23.565 19.102 42.667 42.666 42.667h466.287c23.565 0 42.667-19.102 42.667-42.667s-19.102-42.667-42.667-42.667h-466.287c-23.564 0-42.666 19.102-42.666 42.667zM85.334 106.667c0 23.565 19.102 42.667 42.667 42.667h768c23.565 0 42.667-19.102 42.667-42.667s-19.102-42.667-42.667-42.667h-768c-23.564 0-42.667 19.102-42.667 42.667zM286.17 606.17c-16.662 16.662-43.677 16.662-60.34 0l-128-128c-16.662-16.661-16.662-43.678 0-60.339l128-128c16.663-16.661 43.677-16.661 60.34 0s16.663 43.678 0 60.339l-97.83 97.83 97.83 97.83c16.663 16.663 16.663 43.677 0 60.34z" />
<glyph unicode="&#xe94f;" glyph-name="collapse-right" d="M938.667 789.333c0 23.564-19.102 42.667-42.667 42.667h-768c-23.564 0-42.667-19.103-42.667-42.667s19.102-42.667 42.667-42.667h768c23.565 0 42.667 19.103 42.667 42.667zM640 448c0 23.565-19.102 42.667-42.667 42.667h-466.285c-23.564 0-42.667-19.102-42.667-42.667s19.102-42.667 42.667-42.667h466.285c23.565 0 42.667 19.102 42.667 42.667zM938.667 106.667c0 23.565-19.102 42.667-42.667 42.667h-768c-23.564 0-42.667-19.102-42.667-42.667s19.102-42.667 42.667-42.667h768c23.565 0 42.667 19.102 42.667 42.667zM737.83 606.17c16.661 16.662 43.678 16.662 60.339 0l128-128c16.661-16.661 16.661-43.678 0-60.339l-128-128c-16.661-16.661-43.678-16.661-60.339 0s-16.661 43.678 0 60.339l97.83 97.83-97.83 97.83c-16.661 16.663-16.661 43.677 0 60.34z" />
<glyph unicode="&#xe950;" glyph-name="compass" d="M512 960c-281.6 0-512-230.4-512-512s230.4-512 512-512c281.6 0 512 230.4 512 512s-230.4 512-512 512zM512 21.333c-234.667 0-426.667 192-426.667 426.667s192 426.667 426.667 426.667c234.667 0 426.667-192 426.667-426.667s-192-426.667-426.667-426.667zM755.2 691.199c-12.8 8.533-29.867 12.8-46.933 8.533l-302.933-123.733c-8.533 0-21.333-12.8-21.333-21.333l-119.467-302.932c-8.533-17.067-4.267-34.133 4.267-46.933 8.533-4.267 21.333-12.8 29.867-12.8 4.267 0 12.8 0 17.067 4.267l302.933 119.467c12.8 4.267 21.333 12.8 25.6 25.6l119.467 302.932c4.267 17.067 0 34.133-8.533 46.933zM375.467 311.467l59.733 149.333 89.6-89.6-149.333-59.733zM588.8 435.2l-89.6 89.6 149.333 59.732-59.733-149.332z" />
<glyph unicode="&#xe951;" glyph-name="contrast" d="M512-64c-282.77 0-512 229.231-512 512s229.23 512 512 512c282.769 0 512-229.23 512-512s-229.231-512-512-512zM554.667 23.441c215.607 21.406 384 203.319 384 424.559s-168.393 403.153-384 424.56v-849.119zM420.493 864.831c-162.188-35.442-289.882-163.135-325.324-325.324l325.324 325.324zM86.949 410.607c4.572-52.651 18.706-102.566 40.657-147.998l341.727 341.729v188.654l-382.384-382.385zM173.676 188.002c27.261-35.422 59.96-66.441 96.847-91.806l198.81 198.81v188.655l-295.657-295.659zM348.706 53.696c37.777-15.663 78.294-26.052 120.628-30.255v150.886l-120.628-120.631z" />
<glyph unicode="&#xe952;" glyph-name="copy" d="M256 832c0 47.128 38.205 85.333 85.333 85.333h393.698c10.901 0 21.389-4.174 29.312-11.665l203.635-192.547c8.525-8.059 13.355-19.272 13.355-31.002v-447.453c0-47.13-38.204-85.333-85.333-85.333h-106.667v85.333h106.667v404.786h-118.302c-47.13 0-85.333 38.205-85.333 85.333v107.214h-351.031v-37.647h-85.333v37.647zM777.698 775.604l53.743-50.817h-53.743v50.817zM256 277.333c-23.564 0-42.667-19.102-42.667-42.667s19.103-42.667 42.667-42.667h256c23.565 0 42.667 19.102 42.667 42.667s-19.102 42.667-42.667 42.667h-256zM725.333 490.667v-469.333c0-23.565-19.102-42.667-42.667-42.667h-597.333c-23.564 0-42.667 19.102-42.667 42.667v682.667c0 23.564 19.103 42.667 42.667 42.667h384l256-256zM426.667 661.333h-298.667v-597.333h512v384h-128c-47.13 0-85.333 38.204-85.333 85.333v128zM561.988 533.333l-49.988 49.987v-49.987h49.988z" />
<glyph unicode="&#xe953;" glyph-name="chevron-right" d="M396.497 691.503c16.663 16.662 43.678 16.662 60.34 0l213.333-213.334c16.661-16.661 16.661-43.678 0-60.339l-213.333-213.333c-16.661-16.661-43.677-16.661-60.34 0s-16.662 43.678 0 60.339l183.164 183.164-183.164 183.163c-16.662 16.663-16.662 43.677 0 60.34z" />
<glyph unicode="&#xe954;" glyph-name="chevron-right-filled" d="M695.164 417.83l-195.661-195.661c-26.88-26.88-72.836-7.842-72.836 30.17v391.32c0 38.012 45.956 57.049 72.836 30.17l195.661-195.66c16.661-16.661 16.661-43.678 0-60.339z" />
<glyph unicode="&#xe955;" glyph-name="chevron-up" d="M268.497 332.497c-16.662 16.661-16.662 43.678 0 60.339l213.334 213.334c16.661 16.662 43.678 16.662 60.339 0l213.333-213.334c16.661-16.661 16.661-43.678 0-60.339s-43.678-16.661-60.339 0l-183.164 183.164-183.163-183.164c-16.663-16.661-43.677-16.661-60.34 0z" />
<glyph unicode="&#xe956;" glyph-name="chevron-up-filled" d="M481.83 588.498l-195.66-195.662c-26.879-26.876-7.842-72.836 30.17-72.836h391.32c38.012 0 57.050 45.961 30.17 72.836l-195.661 195.662c-16.661 16.663-43.678 16.663-60.339 0z" />
<glyph unicode="&#xe957;" glyph-name="credit-card" d="M682.667 320c-23.565 0-42.667-19.102-42.667-42.667s19.102-42.667 42.667-42.667h128c23.565 0 42.667 19.102 42.667 42.667s-19.102 42.667-42.667 42.667h-128zM0 149.333v597.333c0 47.128 38.205 85.333 85.333 85.333h853.333c47.13 0 85.333-38.205 85.333-85.333v-597.333c0-47.13-38.204-85.333-85.333-85.333h-853.333c-47.128 0-85.333 38.204-85.333 85.333zM938.667 746.667h-853.333v-170.667h853.333v170.667zM85.333 149.333h853.333v341.333h-853.333v-341.333z" />
<glyph unicode="&#xe958;" glyph-name="crop" d="M298.667 874.667c0 23.564-19.103 42.667-42.667 42.667s-42.667-19.103-42.667-42.667v-597.333c0-70.694 57.308-128 128-128h341.333v85.333h-341.333c-23.564 0-42.667 19.102-42.667 42.667v597.333zM853.333 234.667v-85.333h85.333c23.565 0 42.667 19.102 42.667 42.667s-19.102 42.667-42.667 42.667h-85.333zM341.333 661.333h341.333c23.565 0 42.667-19.103 42.667-42.667v-597.333c0-23.565 19.102-42.667 42.667-42.667s42.667 19.102 42.667 42.667v597.333c0 70.692-57.306 128-128 128h-341.333v-85.333zM170.667 746.667v-85.333h-85.333c-23.564 0-42.667 19.102-42.667 42.667s19.103 42.667 42.667 42.667h85.333z" />
<glyph unicode="&#xe959;" glyph-name="cross" d="M840.836 776.837c16.661-16.663 16.661-43.677 0-60.34l-268.497-268.497 268.497-268.497c16.661-16.661 16.661-43.678 0-60.339s-43.678-16.661-60.339 0l-268.497 268.497-268.497-268.497c-16.663-16.661-43.677-16.661-60.34 0s-16.662 43.678 0 60.339l268.497 268.497-268.497 268.497c-16.662 16.663-16.662 43.677 0 60.34s43.677 16.662 60.34 0l268.497-268.497 268.497 268.497c16.661 16.662 43.678 16.662 60.339 0z" />
<glyph unicode="&#xe95a;" glyph-name="cross-circle" d="M512 21.333c-235.642 0-426.667 191.027-426.667 426.667 0 235.642 191.025 426.667 426.667 426.667 235.639 0 426.667-191.025 426.667-426.667 0-235.639-191.027-426.667-426.667-426.667zM512-64c282.769 0 512 229.231 512 512s-229.231 512-512 512c-282.77 0-512-229.23-512-512s229.23-512 512-512zM268.497 691.503c16.662 16.663 43.677 16.663 60.34 0l183.163-183.164 183.164 183.164c16.661 16.663 43.678 16.663 60.339 0s16.661-43.677 0-60.34l-183.164-183.163 183.164-183.164c16.661-16.661 16.661-43.678 0-60.339s-43.678-16.661-60.339 0l-183.164 183.164-183.163-183.164c-16.662-16.661-43.677-16.661-60.34 0s-16.663 43.678 0 60.339l183.164 183.164-183.164 183.163c-16.663 16.662-16.663 43.677 0 60.34z" />
<glyph unicode="&#xe95b;" glyph-name="cut" d="M824.363 78.754c58.765 33.929 78.895 109.069 44.971 167.834-27.695 47.966-82.923 70.268-134.298 58.27-22.946-5.359-45.892 8.896-51.251 31.842s8.9 45.897 31.846 51.255c86.963 20.309 180.591-17.276 227.601-98.701 57.493-99.575 23.373-226.906-76.203-284.399-99.58-57.493-226.91-23.373-284.403 76.203l-66.769 115.652-66.773-115.652c-57.49-99.575-184.82-133.696-284.398-76.203s-133.697 184.823-76.205 284.399c45.271 78.413 133.773 116.156 217.886 100.723 23.177-4.25 38.519-26.487 34.266-49.664s-26.489-38.519-49.666-34.266c-49.735 9.122-101.923-13.278-128.585-59.46-33.928-58.765-13.793-133.905 44.971-167.834 58.764-33.924 133.905-13.79 167.832 44.971l91.405 158.319-335.366 580.871c-11.782 20.407-4.79 46.502 15.617 58.284s46.502 4.79 58.284-15.617l310.732-538.204 310.733 538.204c11.78 20.407 37.875 27.399 58.283 15.617s27.401-37.876 15.616-58.284l-335.364-580.871 91.405-158.319c33.929-58.761 109.069-78.895 167.834-44.971z" />
<glyph unicode="&#xe95c;" glyph-name="disability" d="M435.332 680.174c45.739 25.524 76.668 74.396 76.668 130.493 0 82.475-66.859 149.333-149.333 149.333s-149.333-66.859-149.333-149.333c0-78.832 61.083-143.397 138.501-148.946l114.888-396.27c5.286-18.236 21.99-30.784 40.977-30.784h317.884l65.293-225.216c6.562-22.63 30.225-35.661 52.86-29.099 22.63 6.562 35.661 30.229 29.099 52.86l-74.219 256c-5.286 18.24-21.99 30.788-40.981 30.788h-317.879l-37.111 128h222.69c23.565 0 42.667 19.102 42.667 42.667s-19.102 42.667-42.667 42.667h-247.428l-42.573 146.841zM426.667 810.667c0-35.346-28.654-64-64-64s-64 28.654-64 64c0 35.346 28.654 64 64 64s64-28.654 64-64zM317.921 534.837c-46.037-12.55-87.799-37.98-120.517-73.521-32.724-35.541-55.084-79.774-64.458-127.714-9.374-47.945-5.367-97.596 11.546-143.313 16.912-45.713 46.024-85.598 83.946-115.2 37.915-29.598 83.138-47.753 130.542-52.501 47.402-4.753 95.194 4.083 137.985 25.553 34.317 17.216 64.35 42.022 87.962 72.529 5.837 7.543 11.281 15.433 16.299 23.646 4.655 7.612 8.909 15.445 12.749 23.462l76.949-36.885c-5.086-10.615-10.722-20.992-16.892-31.083-6.652-10.884-13.871-21.35-21.623-31.364-31.343-40.503-71.322-73.574-117.18-96.58-57.199-28.698-121.204-40.555-184.756-34.189-63.549 6.37-124.006 30.699-174.543 70.148-50.529 39.445-89.108 92.412-111.468 152.853-22.359 60.437-27.638 125.999-15.262 189.299s41.936 121.899 85.426 169.139c43.496 47.244 99.2 81.243 160.854 98.050l22.443-82.329z" />
<glyph unicode="&#xe95d;" glyph-name="disk" d="M170.667 832c-23.564 0-42.667-19.103-42.667-42.667v-682.667c0-23.565 19.103-42.667 42.667-42.667h42.667v315.26c0 35.345 28.654 64 64 64h469.333c35.345 0 64-28.655 64-64v-315.26h42.667c23.565 0 42.667 19.102 42.667 42.667v608.105l-117.227 117.229h-34.479v-173.037c0-35.346-28.651-64-64-64h-336.591c-35.346 0-64 28.654-64 64v173.037h-109.037zM474.667 680.296h184.294v151.704h-184.294v-151.704zM725.333 64v293.926h-426.667v-293.926h426.667zM42.667 789.333c0 70.692 57.307 128 128 128h608.107c22.63 0 44.335-8.99 60.339-24.994l117.227-117.228c16.004-16.003 24.994-37.708 24.994-60.34v-608.105c0-70.694-57.306-128-128-128h-682.667c-70.692 0-128 57.306-128 128v682.667z" />
<glyph unicode="&#xe95e;" glyph-name="download" d="M512 874.667c23.565 0 42.667-19.103 42.667-42.667v-495.125l225.997 223.513c16.755 16.57 43.767 16.421 60.339-0.333s16.422-43.77-0.333-60.338l-298.667-295.386c-16.623-16.439-43.383-16.439-60.006 0l-298.666 295.386c-16.754 16.567-16.903 43.584-0.333 60.338s43.584 16.903 60.339 0.333l225.997-223.513v495.125c0 23.564 19.102 42.667 42.667 42.667zM170.667 64c0 23.565 19.103 42.667 42.667 42.667h597.333c23.565 0 42.667-19.102 42.667-42.667s-19.102-42.667-42.667-42.667h-597.333c-23.564 0-42.667 19.102-42.667 42.667z" />
<glyph unicode="&#xe95f;" glyph-name="download-cloud" d="M443.26 832c0 23.564 19.102 42.667 42.667 42.667 209.246 0 381.628-153.81 381.628-379.136v-4.791c92.919-40 156.446-136.307 156.446-246.255 0-144.051-109.828-265.818-251.26-265.818h-521.481c-141.432 0-251.259 121.766-251.259 265.818 0 109.948 63.528 206.255 156.445 246.255v30.566c0 117.166 94.982 212.148 212.148 212.148s212.148-94.982 212.148-212.148v-203.738l56.533 60.48c16.094 17.216 43.093 18.125 60.305 2.035 17.216-16.094 18.125-43.093 2.035-60.305l-130.372-139.473c-8.068-8.631-19.354-13.53-31.168-13.53s-23.1 4.898-31.168 13.53l-130.371 139.473c-16.091 17.212-15.181 44.211 2.033 60.305 17.214 16.090 44.214 15.181 60.306-2.035l56.533-60.48v203.738c0 70.038-56.777 126.815-126.814 126.815s-126.815-56.777-126.815-126.815v-11.187c3.147 0.124 6.308 0.183 9.481 0.183 23.564 0 42.667-19.102 42.667-42.667s-19.103-42.667-42.667-42.667c-14.13 0-27.796-1.911-40.822-5.5-70.26-19.345-125.104-88.939-125.104-174.985 0-102.434 76.953-180.484 165.926-180.484h521.481c88.973 0 165.926 78.050 165.926 180.484 0 86.046-54.844 155.639-125.103 174.985-13.026 3.588-26.692 5.5-40.823 5.5-23.565 0-42.667 19.102-42.667 42.667s19.102 42.667 42.667 42.667c3.072 0 6.131-0.060 9.173-0.175-7.070 167.17-135.454 279.206-295.987 279.206-23.565 0-42.667 19.103-42.667 42.667z" />
<glyph unicode="&#xe960;" glyph-name="download-file" d="M554.667 533.333c0 23.564-19.102 42.667-42.667 42.667s-42.667-19.102-42.667-42.667v-174.327l-55.163 55.164c-16.663 16.661-43.677 16.661-60.34 0s-16.662-43.678 0-60.339l128-128c16.661-16.661 43.678-16.661 60.339 0l128 128c16.661 16.661 16.661 43.678 0 60.339s-43.678 16.661-60.339 0l-55.164-55.164v174.327zM938.667 604.445l-320 312.889h-448c-47.128 0-85.333-38.205-85.333-85.333v-768c0-47.13 38.205-85.333 85.333-85.333h682.667c47.13 0 85.333 38.204 85.333 85.333v540.445zM170.667 832h405.333v-142.222c0-70.692 57.306-128 128-128h149.333v-497.778h-682.667v768zM661.333 756.269l111.637-109.158h-68.971c-23.565 0-42.667 19.102-42.667 42.667v66.491z" />
<glyph unicode="&#xe961;" glyph-name="download-image" d="M853.333 810.667c0 23.564-19.102 42.667-42.667 42.667s-42.667-19.103-42.667-42.667v-174.327l-55.164 55.164c-16.661 16.662-43.678 16.662-60.339 0s-16.661-43.677 0-60.34l128-128c16.661-16.661 43.678-16.661 60.339 0l128 128c16.661 16.663 16.661 43.677 0 60.34s-43.678 16.662-60.339 0l-55.164-55.164v174.327zM128 832h426.667v-85.333h-426.667v-470.033l120.174 130.185c50.19 54.374 135.891 54.989 186.856 1.34l109.756-115.529 47.373 47.373c49.988 49.988 131.029 49.988 181.018 0l122.825-122.825v230.822h85.333v-298.667c0-47.13-38.204-85.333-85.333-85.333h-768c-47.128 0-85.333 38.204-85.333 85.333v597.333c0 47.128 38.205 85.333 85.333 85.333zM513.442 201.724l-140.28 147.661c-16.988 17.886-45.555 17.681-62.285-0.444l-182.877-198.118v-1.489h437.833l-52.39 52.39zM686.511 149.333h156.655l-130.33 130.33c-16.661 16.661-43.678 16.661-60.339 0l-48.158-48.158 82.172-82.172z" />
<glyph unicode="&#xe962;" glyph-name="download-table" d="M981.333 405.333h-426.667v512h-384c-70.692 0-128-57.308-128-128v-725.333c0-47.13 38.205-85.333 85.333-85.333h768c47.13 0 85.333 38.204 85.333 85.333v341.333zM469.333 661.333v-256h-341.333v256h341.333zM128 320h341.333v-256h-341.333v256zM554.667 320h341.333v-256h-341.333v256zM853.333 810.667c0 23.564-19.102 42.667-42.667 42.667s-42.667-19.103-42.667-42.667v-174.327l-55.164 55.164c-16.661 16.662-43.678 16.662-60.339 0s-16.661-43.677 0-60.34l128-128c16.661-16.661 43.678-16.661 60.339 0l128 128c16.661 16.663 16.661 43.677 0 60.34s-43.678 16.662-60.339 0l-55.164-55.164v174.327z" />
<glyph unicode="&#xe963;" glyph-name="drag-indicator-vertival-dots" d="M597.333 661.333c0-35.346 28.655-64 64-64s64 28.654 64 64c0 35.346-28.655 64-64 64s-64-28.654-64-64zM341.333 661.333c0-35.346 28.654-64 64-64 35.345 0 64 28.654 64 64s-28.655 64-64 64c-35.346 0-64-28.654-64-64zM597.333 448c0-35.345 28.655-64 64-64s64 28.655 64 64c0 35.345-28.655 64-64 64s-64-28.655-64-64zM341.333 448c0-35.345 28.654-64 64-64 35.345 0 64 28.655 64 64s-28.655 64-64 64c-35.346 0-64-28.655-64-64zM597.333 234.667c0-35.345 28.655-64 64-64s64 28.655 64 64c0 35.345-28.655 64-64 64s-64-28.655-64-64zM341.333 234.667c0-35.345 28.654-64 64-64 35.345 0 64 28.655 64 64s-28.655 64-64 64c-35.346 0-64-28.655-64-64z" />
<glyph unicode="&#xe964;" glyph-name="drag-indicator-vertival-line" d="M512 789.333c23.565 0 42.667-19.103 42.667-42.667v-597.333c0-23.565-19.102-42.667-42.667-42.667s-42.667 19.102-42.667 42.667v597.333c0 23.564 19.102 42.667 42.667 42.667zM341.333 618.667c23.564 0 42.667-19.103 42.667-42.667v-256c0-23.565-19.103-42.667-42.667-42.667s-42.667 19.102-42.667 42.667v256c0 23.564 19.103 42.667 42.667 42.667zM682.667 618.667c23.565 0 42.667-19.103 42.667-42.667v-256c0-23.565-19.102-42.667-42.667-42.667s-42.667 19.102-42.667 42.667v256c0 23.564 19.102 42.667 42.667 42.667z" />
<glyph unicode="&#xe965;" glyph-name="danger-circle" d="M512 21.333c235.639 0 426.667 191.027 426.667 426.667 0 235.642-191.027 426.667-426.667 426.667-235.642 0-426.667-191.025-426.667-426.667 0-235.639 191.025-426.667 426.667-426.667zM1024 448c0-282.769-229.231-512-512-512s-512 229.231-512 512c0 282.77 229.23 512 512 512s512-229.23 512-512zM362.666 706.653c-45.403-26.214-83.106-63.917-109.32-109.32s-40.014-96.905-40.014-149.333h120.669c0.721 65.446 36.612 122.449 89.663 153.001l-60.998 105.652zM602.133 600.821c53.423-30.909 89.365-88.672 89.365-154.831h119.168c0 52.297-13.764 103.671-39.915 148.962-26.146 45.29-63.757 82.9-109.047 109.048l-59.571-103.179zM602.138 291.157c-26.295-15.215-56.828-23.923-89.391-23.923-32.567 0-63.1 8.708-89.395 23.923l-59.571-103.177c45.29-26.15 96.665-39.915 148.961-39.915s103.671 13.764 148.962 39.915l-59.567 103.177zM512.742 326.818c65.818 0 119.172 53.355 119.172 119.172 0 65.813-53.355 119.169-119.172 119.169-65.813 0-119.169-53.356-119.169-119.169 0-65.818 53.356-119.172 119.169-119.172z" />
<glyph unicode="&#xe966;" glyph-name="data-25d" d="M320 217.6c-9.493 0-18.774-3.004-26.668-8.627-7.893-5.628-14.046-13.623-17.679-22.98s-4.584-19.648-2.732-29.581c1.852-9.933 6.423-19.055 13.136-26.214 6.713-7.164 15.266-12.036 24.577-14.012s18.962-0.964 27.733 2.91c8.771 3.878 16.268 10.441 21.542 18.859 5.274 8.422 8.090 18.321 8.090 28.446 0 13.581-5.057 26.603-14.059 36.203-9.002 9.604-21.211 14.997-33.941 14.997zM512 960c-192 0-384-70.144-384-204.8v-614.4c0-134.656 192-204.8 384-204.8s384 70.144 384 204.8v614.4c0 134.656-192 204.8-384 204.8zM800 140.8c0-36.352-109.44-102.4-288-102.4s-288 66.048-288 102.4v167.424c89.859-45.564 188.539-67.844 288-65.024 99.46-2.82 198.14 19.46 288 65.024v-167.424zM800 448c0-36.352-109.44-102.4-288-102.4s-288 66.048-288 102.4v167.424c89.859-45.566 188.539-67.846 288-65.024 99.46-2.822 198.14 19.458 288 65.024v-167.424zM512 652.8c-178.56 0-288 66.048-288 102.4s109.44 102.4 288 102.4c178.56 0 288-66.048 288-102.4s-109.44-102.4-288-102.4zM320 524.8c-9.493 0-18.774-3.004-26.668-8.627-7.893-5.628-14.046-13.623-17.679-22.98s-4.584-19.648-2.732-29.581c1.852-9.933 6.423-19.055 13.136-26.214 6.713-7.164 15.266-12.036 24.577-14.012s18.962-0.964 27.733 2.91c8.771 3.878 16.268 10.441 21.542 18.859 5.274 8.422 8.090 18.321 8.090 28.446 0 13.581-5.057 26.603-14.059 36.203-9.002 9.604-21.211 14.997-33.941 14.997z" />
<glyph unicode="&#xe967;" glyph-name="descending" d="M98.551-60.458c17.393-7.201 37.413-3.221 50.725 10.091l209.455 209.455c18.177 18.176 18.177 47.649 0 65.825s-47.648 18.176-65.826 0l-129.996-129.997v818.539c0 25.706-20.839 46.545-46.545 46.545s-46.545-20.839-46.545-46.545v-930.909c0-18.823 11.34-35.798 28.733-43.003zM249.351 404.778c0-25.702 20.839-46.545 46.545-46.545h611.74c25.707 0 46.545 20.843 46.545 46.545 0 25.707-20.838 46.545-46.545 46.545h-611.74c-25.706 0-46.545-20.838-46.545-46.545zM249.351 627.533c0-25.707 20.839-46.545 46.545-46.545h508.675c25.707 0 46.545 20.839 46.545 46.545s-20.838 46.545-46.545 46.545h-508.675c-25.706 0-46.545-20.839-46.545-46.545zM249.351 820.364c0-25.706 20.839-46.545 46.545-46.545h359.064c25.707 0 46.545 20.839 46.545 46.545s-20.838 46.545-46.545 46.545h-359.064c-25.706 0-46.545-20.839-46.545-46.545z" />
<glyph unicode="&#xe968;" glyph-name="desktoppc" d="M85.333 917.333h853.333c47.13 0 85.333-38.205 85.333-85.333v-554.667c0-47.13-38.204-85.333-85.333-85.333h-298.667v-85.333h85.333c23.565 0 42.667-19.102 42.667-42.667s-19.102-42.667-42.667-42.667h-426.667c-23.564 0-42.667 19.102-42.667 42.667s19.103 42.667 42.667 42.667h85.333v85.333h-298.667c-47.128 0-85.333 38.204-85.333 85.333v554.667c0 47.128 38.205 85.333 85.333 85.333zM938.667 832h-853.333v-554.667h853.333v554.667z" />
<glyph unicode="&#xe969;" glyph-name="dust" d="M896 853.333c0-35.346-28.655-64-64-64s-64 28.654-64 64c0 35.346 28.655 64 64 64s64-28.654 64-64zM533.333 448c58.91 0 106.667 47.757 106.667 106.667s-47.757 106.667-106.667 106.667c-58.91 0-106.667-47.756-106.667-106.667s47.757-106.667 106.667-106.667zM448 192c35.345 0 64 28.655 64 64s-28.655 64-64 64c-35.346 0-64-28.655-64-64s28.654-64 64-64zM725.333 320c23.565 0 42.667 19.102 42.667 42.667s-19.102 42.667-42.667 42.667c-23.565 0-42.667-19.102-42.667-42.667s19.102-42.667 42.667-42.667zM255.267-21.201c-21.686 0.004-43.241 0.009-64.489 0.004-19.951-0.004-39.631-0.013-58.892-0.026l-7.501-0.004c-18.495-0.013-23.807 25.314-6.872 32.751l157.806 69.269c5.661 2.487 6.891 9.988 2.444 14.285-5.39 5.205-10.645 10.556-15.758 16.047-12.002 12.89-23.224 26.543-33.588 40.887l-0.758 1.054c-50.731 70.66-80.696 157.884-80.696 252.267 0 113.621 43.427 216.871 114.231 293.333 76.037 82.113 183.645 133.333 302.954 133.333 230.404 0 417.186-191.025 417.186-426.667 0-235.639-186.782-426.667-417.186-426.667-50.244 0-105.873 0.030-163.435 0.064h-0.297c-47.719 0.030-96.759 0.055-145.148 0.068zM564.147 64c181.478 0 331.853 151.002 331.853 341.333s-150.374 341.333-331.853 341.333c-94.242 0-179.555-40.334-240.342-105.979-56.605-61.129-91.509-143.822-91.509-235.354 0-98.449 40.392-186.718 104.75-248.879 25.698-24.819 33.908-60.608 25.518-92.369l38.002-0.021c57.658-0.034 113.355-0.064 163.582-0.064zM170.667 682.667c0-35.346-28.654-64-64-64s-64 28.654-64 64c0 35.346 28.654 64 64 64s64-28.654 64-64zM341.333 874.667c0-23.564-19.103-42.667-42.667-42.667s-42.667 19.103-42.667 42.667c0 23.564 19.103 42.667 42.667 42.667s42.667-19.103 42.667-42.667z" />
<glyph unicode="&#xe96a;" glyph-name="dust-filled" d="M896 853.333c0-35.346-28.655-64-64-64s-64 28.654-64 64c0 35.346 28.655 64 64 64s64-28.654 64-64zM170.667 682.667c0-35.346-28.654-64-64-64s-64 28.654-64 64c0 35.346 28.654 64 64 64s64-28.654 64-64zM298.667 832c23.564 0 42.667 19.103 42.667 42.667s-19.103 42.667-42.667 42.667c-23.564 0-42.667-19.103-42.667-42.667s19.103-42.667 42.667-42.667zM255.267-21.201c48.389-0.013 97.429-0.038 145.148-0.068h0.297c57.562-0.034 113.19-0.064 163.435-0.064 230.404 0 417.186 191.027 417.186 426.667 0 235.642-186.782 426.667-417.186 426.667-119.309 0-226.917-51.22-302.954-133.333-70.804-76.462-114.231-179.712-114.231-293.333 0-94.383 29.965-181.606 80.696-252.267l0.758-1.054c10.364-14.345 21.586-27.998 33.588-40.887 5.113-5.491 10.368-10.842 15.758-16.047 4.447-4.297 3.217-11.797-2.444-14.285l-157.806-69.269c-16.935-7.437-11.623-32.764 6.872-32.751l7.501 0.004c19.261 0.013 38.94 0.021 58.892 0.026 21.248 0.004 42.803 0 64.489-0.004zM640 554.667c0-58.91-47.757-106.667-106.667-106.667s-106.667 47.757-106.667 106.667c0 58.91 47.757 106.667 106.667 106.667s106.667-47.756 106.667-106.667zM512 256c0-35.345-28.655-64-64-64s-64 28.655-64 64 28.654 64 64 64c35.345 0 64-28.655 64-64zM725.333 320c23.565 0 42.667 19.102 42.667 42.667s-19.102 42.667-42.667 42.667c-23.565 0-42.667-19.102-42.667-42.667s19.102-42.667 42.667-42.667z" />
<glyph unicode="&#xe96b;" glyph-name="dust-outline" d="M832 789.333c-35.345 0-64 28.654-64 64s28.655 64 64 64c35.345 0 64-28.654 64-64s-28.655-64-64-64zM832 832c11.78 0 21.333 9.551 21.333 21.333s-9.553 21.333-21.333 21.333c-11.78 0-21.333-9.551-21.333-21.333s9.553-21.333 21.333-21.333zM640 554.667c0-58.91-47.757-106.667-106.667-106.667s-106.667 47.757-106.667 106.667c0 58.91 47.757 106.667 106.667 106.667s106.667-47.756 106.667-106.667zM554.667 554.667c0-11.782-9.553-21.333-21.333-21.333s-21.333 9.551-21.333 21.333c0 11.782 9.553 21.333 21.333 21.333s21.333-9.551 21.333-21.333zM512 256c0 35.345-28.655 64-64 64s-64-28.655-64-64 28.654-64 64-64c35.345 0 64 28.655 64 64zM426.667 256c0 11.78 9.553 21.333 21.333 21.333s21.333-9.553 21.333-21.333c0-11.78-9.553-21.333-21.333-21.333s-21.333 9.553-21.333 21.333zM768 362.667c0-23.565-19.102-42.667-42.667-42.667s-42.667 19.102-42.667 42.667c0 23.565 19.102 42.667 42.667 42.667s42.667-19.102 42.667-42.667zM255.267-21.201c-21.686 0.004-43.241 0.009-64.489 0.004-19.951-0.004-39.631-0.013-58.892-0.026l-7.501-0.004c-18.495-0.013-23.807 25.314-6.872 32.751l157.806 69.269c5.661 2.487 6.891 9.988 2.444 14.285-5.39 5.205-10.645 10.556-15.758 16.047-12.002 12.89-23.224 26.543-33.588 40.887l-0.758 1.054c-50.731 70.66-80.696 157.884-80.696 252.267 0 113.621 43.427 216.871 114.231 293.333 76.037 82.113 183.645 133.333 302.954 133.333 230.404 0 417.186-191.025 417.186-426.667 0-235.639-186.782-426.667-417.186-426.667-50.244 0-105.873 0.030-163.435 0.064h-0.297c-47.719 0.030-96.759 0.055-145.148 0.068zM564.147 64c181.478 0 331.853 151.002 331.853 341.333s-150.374 341.333-331.853 341.333c-94.242 0-179.555-40.334-240.342-105.979-56.605-61.129-91.509-143.822-91.509-235.354 0-98.449 40.392-186.718 104.75-248.879 25.698-24.819 33.908-60.608 25.518-92.369l38.002-0.021c57.658-0.034 113.355-0.064 163.582-0.064zM106.667 618.667c-35.346 0-64 28.654-64 64s28.654 64 64 64c35.346 0 64-28.654 64-64s-28.654-64-64-64zM106.667 661.333c11.782 0 21.333 9.551 21.333 21.333s-9.551 21.333-21.333 21.333c-11.782 0-21.333-9.551-21.333-21.333s9.551-21.333 21.333-21.333zM298.667 832c23.564 0 42.667 19.103 42.667 42.667s-19.103 42.667-42.667 42.667c-23.564 0-42.667-19.103-42.667-42.667s19.103-42.667 42.667-42.667z" />
<glyph unicode="&#xe96c;" glyph-name="earphone" d="M395.636 917.333h-96.97c-141.385 0-256-114.615-256-256v-351.573c0-55.731 35.619-103.147 85.333-120.717v-167.71c0-23.565 19.103-42.667 42.667-42.667s42.667 19.102 42.667 42.667v167.71c49.715 17.57 85.333 64.986 85.333 120.717v95.573h96.97c40.703 0 73.697 32.994 73.697 73.698v364.605c0 40.701-32.994 73.697-73.697 73.697zM128 470.519c24.623-22.037 53.536-39.381 85.333-50.62v-110.14c0-23.565-19.103-42.667-42.667-42.667s-42.667 19.102-42.667 42.667v160.759zM298.667 490.667c-94.257 0-170.667 76.41-170.667 170.667s76.41 170.667 170.667 170.667h85.333v-341.333h-85.333zM628.365 917.333h96.969c141.385 0 256-114.615 256-256v-351.573c0-55.731-35.618-103.147-85.333-120.717v-167.71c0-23.565-19.102-42.667-42.667-42.667s-42.667 19.102-42.667 42.667v167.71c-49.715 17.57-85.333 64.986-85.333 120.717v95.573h-96.969c-40.704 0-73.698 32.994-73.698 73.698v364.605c0 40.701 32.994 73.697 73.698 73.697zM896 661.333c0 94.257-76.412 170.667-170.667 170.667h-85.333v-341.333h85.333c94.255 0 170.667 76.41 170.667 170.667zM896 470.519c-24.623-22.037-53.538-39.381-85.333-50.62v-110.14c0-23.565 19.102-42.667 42.667-42.667s42.667 19.102 42.667 42.667v160.759z" />
<glyph unicode="&#xe96d;" glyph-name="earth" d="M387.281 415.45c-7.481-3.319-42.351-25.101-54.356-40.179-12.006-15.083-17.254-46.938 0-60.331 6.383-4.979 7.911-16.836 9.658-30.391 2.975-23.083 6.585-51.102 35.89-58.475 4.993-1.254 9.987-2.458 14.926-3.644 41.072-9.869 78.35-18.829 79.911-51.678 1.63-36.8-4.343-122.287-26.726-130.731 30.165-16.713 103.586 72.090 129.408 119.027 25.882 46.878 34.509 113.963 32.755 130.735-0.917 8.785 1.984 22.682 5.696 40.461 3.345 16.026 7.351 35.217 9.809 56.666 3.268 28.809-11.567 40.499-24.098 50.377-7.151 5.636-13.551 10.679-15.415 17.98-5.248 20.147-12.245 42.291-197.457-39.817zM754.086 617.562c-82.53 77.161 38.852 129.104 38.852 129.104 29.077-0.905 70.464-65.336 72.636-73.843 0.474-1.518 2.948-6.266 6.643-13.341 16.563-31.738 57.566-110.291 51.695-154.194-7.3-53.692-41.143-144.183-87.057-150.882-31.603-4.676-3.26 35.196 18.436 65.719 9.66 13.585 17.997 25.318 19.149 30.447 4.045 16.772-37.948 89.949-120.354 166.99zM512-64c-282.77 0-512 229.231-512 512s229.23 512 512 512c282.769 0 512-229.23 512-512s-229.231-512-512-512zM512 21.333c235.639 0 426.667 191.027 426.667 426.667 0 235.642-191.027 426.667-426.667 426.667-56.597 0-110.622-11.020-160.044-31.032 55.136-9.405 124.993-55.764 47.964-145.257 4.066-20.404 23.049-12.902 43.382-4.867 29.751 11.756 62.387 24.654 55.437-47.017-31.791-39.738-38.046-39.145-48.939-38.113-4.983 0.472-10.931 1.036-20.74-2.126-31.191-10.015-49.23-40.179-29.079-80.418 5.057-10.159 12.369-19.358 18.399-26.94 17.853-22.451 24.475-30.78-71.85-8.235-117.87 27.58-178.656 133.574-175.764 213.51-53.641-71.339-85.432-160.044-85.432-256.173 0-235.639 191.025-426.667 426.667-426.667z" />
<glyph unicode="&#xe96e;" glyph-name="exclamation-circle" d="M512 21.333c-235.642 0-426.667 191.027-426.667 426.667 0 235.642 191.025 426.667 426.667 426.667 235.639 0 426.667-191.025 426.667-426.667 0-235.639-191.027-426.667-426.667-426.667zM512-64c282.769 0 512 229.231 512 512s-229.231 512-512 512c-282.77 0-512-229.23-512-512s229.23-512 512-512zM512 746.666c23.565 0 42.667-19.102 42.667-42.667v-341.333c0-23.565-19.102-42.667-42.667-42.667s-42.667 19.102-42.667 42.667v341.333c0 23.564 19.102 42.667 42.667 42.667zM554.667 192c0-23.565-19.102-42.667-42.667-42.667s-42.667 19.102-42.667 42.667c0 23.565 19.102 42.667 42.667 42.667s42.667-19.102 42.667-42.667z" />
<glyph unicode="&#xe96f;" glyph-name="sun" d="M512 960c23.565 0 42.667-19.103 42.667-42.667v-79.059c0-23.564-19.102-42.667-42.667-42.667s-42.667 19.102-42.667 42.667v79.059c0 23.564 19.102 42.667 42.667 42.667zM512 100.39c23.565 0 42.667-19.102 42.667-42.667v-79.057c0-23.565-19.102-42.667-42.667-42.667s-42.667 19.102-42.667 42.667v79.057c0 23.565 19.102 42.667 42.667 42.667zM512 149.333c-164.949 0-298.667 133.717-298.667 298.667s133.718 298.667 298.667 298.667c164.949 0 298.667-133.718 298.667-298.667s-133.717-298.667-298.667-298.667zM512 234.667c117.82 0 213.333 95.514 213.333 213.333s-95.514 213.333-213.333 213.333c-117.821 0-213.333-95.513-213.333-213.333s95.513-213.333 213.333-213.333zM874.039 749.699c16.661 16.663 16.661 43.677 0 60.34s-43.678 16.662-60.339 0l-55.902-55.903c-16.666-16.663-16.666-43.677 0-60.34 16.661-16.663 43.678-16.663 60.339 0l55.902 55.903zM266.205 141.862c16.663 16.666 16.663 43.678 0 60.343-16.662 16.661-43.677 16.661-60.34 0l-55.903-55.906c-16.662-16.661-16.662-43.678 0-60.339s43.677-16.661 60.34 0l55.903 55.902zM1024 448c0-23.565-19.102-42.667-42.667-42.667h-79.057c-23.565 0-42.667 19.102-42.667 42.667s19.102 42.667 42.667 42.667h79.057c23.565 0 42.667-19.102 42.667-42.667zM164.392 448c0-23.565-19.102-42.667-42.667-42.667h-79.059c-23.564 0-42.667 19.102-42.667 42.667s19.103 42.667 42.667 42.667h79.059c23.564 0 42.667-19.102 42.667-42.667zM813.7 85.961c16.661-16.661 43.678-16.661 60.339 0s16.661 43.678 0 60.339l-55.906 55.902c-16.661 16.666-43.674 16.666-60.339 0-16.661-16.661-16.661-43.678 0-60.339l55.906-55.902zM205.864 693.795c16.663-16.663 43.677-16.663 60.34 0s16.663 43.677 0 60.34l-55.903 55.903c-16.663 16.662-43.677 16.662-60.34 0s-16.662-43.677 0-60.34l55.903-55.903z" />
</font>
</defs>
</svg>
